STARTFONT 2.1
COMMENT
COMMENT Converted from OpenType font "Q:\font stuff\winfont\Wytherness.ttf" by "otf2bdf 3.0".
COMMENT
FONT -FreeType-Wytherness-Medium-R-Normal--72-720-72-72-P-175-ISO10646-1
SIZE 72 72 72
FONTBOUNDINGBOX 71 82 -1 -24
STARTPROPERTIES 19
FOUNDRY "FreeType"
FAMILY_NAME "Wytherness"
WEIGHT_NAME "Medium"
SLANT "R"
SETWIDTH_NAME "Normal"
ADD_STYLE_NAME ""
PIXEL_SIZE 72
POINT_SIZE 720
RESOLUTION_X 72
RESOLUTION_Y 72
SPACING "P"
AVERAGE_WIDTH 175
CHARSET_REGISTRY "ISO10646"
CHARSET_ENCODING "1"
FONT_ASCENT 57
FONT_DESCENT 14
COPYRIGHT "Copyright (c) Graham Meade, 2003. All rights reserved."
_OTF_FONTFILE "Q:\font stuff\winfont\Wytherness.ttf"
_OTF_PSNAME "Wytherness"
ENDPROPERTIES
CHARS 219
STARTCHAR 0020
ENCODING 32
SWIDTH 277 0
DWIDTH 20 0
BBX 0 0 0 0
BITMAP
ENDCHAR
STARTCHAR 0021
ENCODING 33
SWIDTH 138 0
DWIDTH 10 0
BBX 3 47 4 0
BITMAP
E0
E0
E0
E0
E0
E0
E0
E0
E0
E0
E0
E0
E0
E0
E0
E0
E0
E0
E0
E0
E0
E0
E0
E0
E0
E0
E0
E0
E0
E0
E0
E0
E0
E0
E0
00
00
00
00
00
00
00
00
E0
E0
E0
E0
ENDCHAR
STARTCHAR 0022
ENCODING 34
SWIDTH 250 0
DWIDTH 18 0
BBX 10 10 4 37
BITMAP
E1C0
E1C0
E1C0
E1C0
E1C0
E1C0
E1C0
E1C0
E1C0
E1C0
ENDCHAR
STARTCHAR 0023
ENCODING 35
SWIDTH 430 0
DWIDTH 31 0
BBX 23 22 4 10
BITMAP
0381C0
0381C0
0381C0
0381C0
0381C0
7FFFFE
7FFFFE
0701C0
0701C0
0701C0
070380
070380
070380
070380
070380
FFFFFC
FFFFFC
070380
070380
070380
070380
070380
ENDCHAR
STARTCHAR 0024
ENCODING 36
SWIDTH 347 0
DWIDTH 25 0
BBX 17 47 4 0
BITMAP
01C000
01C000
01C000
0FF000
1FFC00
3DFE00
79CF00
F1C380
E1C000
E1C000
E1C000
E1C000
E1C000
E1C000
E1C000
E1C000
E1C000
E1C000
71C000
3DC000
1FE000
0FF800
01FE00
01CF00
01C780
01C380
01C380
01C380
01C380
01C380
01C380
01C380
01C380
01C380
01C380
01C380
01C380
01C380
01C380
E1C780
71CF00
7DDE00
1FFC00
0FF800
01C000
01C000
01C000
ENDCHAR
STARTCHAR 0025
ENCODING 37
SWIDTH 625 0
DWIDTH 45 0
BBX 37 47 4 -1
BITMAP
0F00006000
1F8000C000
38C000C000
70E000C000
E07001C000
E038018000
E038018000
E038018000
E038030000
E038030000
E038030000
E038060000
E038060000
E038060000
E0380E0000
E0380C0000
E0380C0000
E0380C0000
E038180000
E038180000
E070180000
7070300000
38E0300000
1FC0300F80
0F80701FC0
00006038E0
0000607070
000060E078
0000C0E038
0000C0E038
0000C0E038
0001C0E038
000180E038
000180E038
000180E038
000300E038
000300E038
000300E038
000600E038
000600E038
000600E038
000E00E038
000C00E078
000C007070
000C0038E0
0018001FC0
0018000F80
ENDCHAR
STARTCHAR 0026
ENCODING 38
SWIDTH 347 0
DWIDTH 25 0
BBX 17 49 4 -2
BITMAP
03E000
0FF800
3C1C00
780E00
700700
E00380
E00380
E00380
E00380
E00380
E00380
E00380
E00380
E00380
E00380
F00780
780F00
3C1E00
1FFC00
1FF000
3F0000
780000
F00000
E00000
E00000
E00000
E07000
E07C00
E01E00
E00F00
E00780
E00380
E00380
E00380
E00380
E00380
E00380
E00380
E00380
E00380
E00380
E00380
F00780
780F80
3F7F80
1FFB80
07E380
000380
000380
ENDCHAR
STARTCHAR 0027
ENCODING 39
SWIDTH 138 0
DWIDTH 10 0
BBX 3 10 4 37
BITMAP
E0
E0
E0
E0
E0
E0
E0
E0
E0
E0
ENDCHAR
STARTCHAR 0028
ENCODING 40
SWIDTH 222 0
DWIDTH 16 0
BBX 9 61 4 -7
BITMAP
0380
0F80
3C00
7800
F000
E000
E000
E000
E000
E000
E000
E000
E000
E000
E000
E000
E000
E000
E000
E000
E000
E000
E000
E000
E000
E000
E000
E000
E000
E000
E000
E000
E000
E000
E000
E000
E000
E000
E000
E000
E000
E000
E000
E000
E000
E000
E000
E000
E000
E000
E000
E000
E000
E000
E000
E000
F000
7800
3C00
1F80
0380
ENDCHAR
STARTCHAR 0029
ENCODING 41
SWIDTH 222 0
DWIDTH 16 0
BBX 9 61 4 -7
BITMAP
E000
F800
3C00
0F00
0780
0380
0380
0380
0380
0380
0380
0380
0380
0380
0380
0380
0380
0380
0380
0380
0380
0380
0380
0380
0380
0380
0380
0380
0380
0380
0380
0380
0380
0380
0380
0380
0380
0380
0380
0380
0380
0380
0380
0380
0380
0380
0380
0380
0380
0380
0380
0380
0380
0380
0380
0380
0780
0F00
3E00
F800
E000
ENDCHAR
STARTCHAR 002A
ENCODING 42
SWIDTH 333 0
DWIDTH 24 0
BBX 16 17 4 30
BITMAP
01C0
01C0
01C0
01C0
41C2
F1CF
79DE
1FF8
07E0
07E0
0FF0
3DFC
F1CF
41C6
01C0
01C0
01C0
ENDCHAR
STARTCHAR 002B
ENCODING 43
SWIDTH 416 0
DWIDTH 30 0
BBX 23 22 4 10
BITMAP
003800
003800
003800
003800
003800
003800
003800
003800
003800
003800
FFFFFE
FFFFFE
003800
003800
003800
003800
003800
003800
003800
003800
003800
003800
ENDCHAR
STARTCHAR 002C
ENCODING 44
SWIDTH 180 0
DWIDTH 13 0
BBX 5 10 4 -6
BITMAP
18
38
30
30
30
70
60
60
60
E0
ENDCHAR
STARTCHAR 002D
ENCODING 45
SWIDTH 416 0
DWIDTH 30 0
BBX 22 2 4 20
BITMAP
FFFFFC
FFFFFC
ENDCHAR
STARTCHAR 002E
ENCODING 46
SWIDTH 138 0
DWIDTH 10 0
BBX 3 5 4 0
BITMAP
E0
E0
E0
E0
E0
ENDCHAR
STARTCHAR 002F
ENCODING 47
SWIDTH 347 0
DWIDTH 25 0
BBX 17 47 4 -1
BITMAP
000180
000180
000300
000300
000300
000600
000600
000600
000E00
000C00
000C00
001C00
001800
001800
001800
003000
003000
003000
006000
006000
006000
00C000
00C000
00C000
018000
018000
018000
038000
030000
030000
070000
060000
060000
060000
0C0000
0C0000
0C0000
180000
180000
180000
300000
300000
300000
700000
600000
600000
E00000
ENDCHAR
STARTCHAR 0030
ENCODING 48
SWIDTH 347 0
DWIDTH 25 0
BBX 17 47 4 0
BITMAP
03E000
0FF800
3C1C00
780E00
F00700
E00380
E00380
E00380
E00380
E00380
E00380
E00380
E00380
E00380
E00380
E00380
E00380
E00380
E00380
E00380
E1C380
E1C380
E1C380
E1C380
E00380
E00380
E00380
E00380
E00380
E00380
E00380
E00380
E00380
E00380
E00380
E00380
E00380
E00380
E00380
E00380
E00380
E00380
F00780
780F00
3C1E00
1FF800
03E000
ENDCHAR
STARTCHAR 0031
ENCODING 49
SWIDTH 347 0
DWIDTH 25 0
BBX 17 47 4 0
BITMAP
01C000
01C000
01C000
01C000
01C000
01C000
01C000
01C000
01C000
01C000
01C000
01C000
01C000
01C000
01C000
01C000
01C000
01C000
01C000
01C000
01C000
01C000
01C000
01C000
01C000
01C000
01C000
01C000
01C000
01C000
01C000
01C000
01C000
01C000
01C000
01C000
01C000
01C000
01C000
01C000
01C000
01C000
E1C780
79CF00
3FFE00
0FF800
03E000
ENDCHAR
STARTCHAR 0032
ENCODING 50
SWIDTH 347 0
DWIDTH 25 0
BBX 17 47 4 0
BITMAP
03E000
0FF800
3C1C00
780E00
F00700
E00380
E00380
E00380
000380
000380
000380
000380
000380
000380
000380
000380
000380
000780
000F00
001E00
03FC00
0FE000
3C0000
780000
F00000
E00000
E00000
E00000
E00000
E00000
E00000
E00000
E00000
E00000
E00000
E00000
E00000
E00000
E00000
E00000
E00000
E00200
F00780
780F00
3C1E00
1FF800
03E000
ENDCHAR
STARTCHAR 0033
ENCODING 51
SWIDTH 347 0
DWIDTH 25 0
BBX 17 47 4 0
BITMAP
03E000
0FF800
3C1C00
780E00
F00700
E00380
E00380
E00380
000380
000380
000380
000380
000380
000380
000380
000380
000380
000780
000F00
001E00
007C00
007800
001E00
000F00
000780
000380
000380
000380
000380
000380
000380
000380
000380
000380
000380
000380
000380
000380
000380
E00380
E00380
E00380
F00780
780F00
3C1E00
1FF800
03E000
ENDCHAR
STARTCHAR 0034
ENCODING 52
SWIDTH 347 0
DWIDTH 25 0
BBX 17 47 4 0
BITMAP
018000
018000
018000
030000
030000
030000
030000
060000
060000
060000
0E0000
0C0000
0C0000
0C7000
187000
187000
187000
187000
307000
307000
307000
707000
607000
607000
607000
E07000
E07000
E07000
E07000
E07000
E07000
F07200
F07780
787F00
3C7E00
1FF800
07F000
007000
007000
007000
007000
007000
007000
007000
007000
007000
007000
ENDCHAR
STARTCHAR 0035
ENCODING 53
SWIDTH 347 0
DWIDTH 25 0
BBX 17 47 4 0
BITMAP
03E000
0FF800
3C1C00
780E00
F00700
E00300
E00000
E00000
E00000
E00000
E00000
E00000
E00000
E00000
E00000
E00000
E00000
E00000
E00000
E00000
E3E000
EFF800
FC1E00
F80F00
F00780
000380
000380
000380
000380
000380
000380
000380
000380
000380
000380
000380
000380
000380
000380
E00380
E00380
E00380
F00780
780F00
3C1E00
1FF800
03E000
ENDCHAR
STARTCHAR 0036
ENCODING 54
SWIDTH 347 0
DWIDTH 25 0
BBX 17 47 4 0
BITMAP
038000
0F8000
3C0000
780000
F00000
E00000
E00000
E00000
E00000
E00000
E00000
E00000
E00000
E00000
E00000
E00000
E00000
E00000
E00000
E00000
E3E000
EFF800
FF7E00
F80F00
F00780
E00380
E00380
E00380
E00380
E00380
E00380
E00380
E00380
E00380
E00380
E00380
E00380
E00380
E00380
E00380
E00380
E00380
F00780
780F00
3C1E00
1FF800
03E000
ENDCHAR
STARTCHAR 0037
ENCODING 55
SWIDTH 347 0
DWIDTH 25 0
BBX 16 47 5 -1
BITMAP
07C0
1FF0
7878
E03C
C01E
C00F
000F
0007
0007
0007
0007
0007
0006
0006
0006
0006
0006
000C
000C
000C
000C
000C
001C
0018
0018
0018
0018
0038
0030
0030
0030
0030
0030
0060
0060
0060
0060
0060
00C0
00C0
00C0
00C0
00C0
0180
0180
0180
0180
ENDCHAR
STARTCHAR 0038
ENCODING 56
SWIDTH 347 0
DWIDTH 25 0
BBX 17 47 4 0
BITMAP
03E000
0FF800
3C1C00
780E00
F00700
E00380
E00380
E00380
E00380
E00380
E00380
E00380
E00380
E00380
E00380
E00380
E00380
F00780
780F00
3C1E00
1FFC00
1FF800
3C1E00
780F00
F00780
E00380
E00380
E00380
E00380
E00380
E00380
E00380
E00380
E00380
E00380
E00380
E00380
E00380
E00380
E00380
E00380
E00380
F00780
780F00
3C1E00
1FF800
03E000
ENDCHAR
STARTCHAR 0039
ENCODING 57
SWIDTH 347 0
DWIDTH 25 0
BBX 17 47 4 0
BITMAP
03E000
0FF800
3C1C00
780E00
F00700
E00380
E00380
E00380
E00380
E00380
E00380
E00380
E00380
E00380
E00380
E00380
E00380
E00380
E00380
E00380
E00380
E00380
F00780
780F80
3C3F80
1FFB80
07E380
000380
000380
000380
000380
000380
000380
000380
000380
000380
000380
000380
000380
000380
000380
000380
000780
000F00
001E00
007800
006000
ENDCHAR
STARTCHAR 003A
ENCODING 58
SWIDTH 138 0
DWIDTH 10 0
BBX 3 25 4 0
BITMAP
E0
E0
E0
E0
00
00
00
00
00
00
00
00
00
00
00
00
00
00
00
00
00
E0
E0
E0
E0
ENDCHAR
STARTCHAR 003B
ENCODING 59
SWIDTH 180 0
DWIDTH 13 0
BBX 5 30 4 -5
BITMAP
38
38
38
38
00
00
00
00
00
00
00
00
00
00
00
00
00
00
00
00
18
30
30
30
70
60
60
60
C0
C0
ENDCHAR
STARTCHAR 003C
ENCODING 60
SWIDTH 416 0
DWIDTH 30 0
BBX 22 18 4 12
BITMAP
000004
00003C
0001F8
000FC0
007E00
03F800
0FC000
7E0000
F00000
F00000
7E0000
1F8000
03F000
007E00
000FC0
0001F8
00003C
000004
ENDCHAR
STARTCHAR 003D
ENCODING 61
SWIDTH 416 0
DWIDTH 30 0
BBX 22 12 4 15
BITMAP
FFFFFC
FFFFFC
000000
000000
000000
000000
000000
000000
000000
000000
FFFFFC
FFFFFC
ENDCHAR
STARTCHAR 003E
ENCODING 62
SWIDTH 416 0
DWIDTH 30 0
BBX 22 18 4 12
BITMAP
800000
F00000
7E0000
0FC000
01F800
003F00
000FC0
0001F8
00003C
00003C
0001FC
0007E0
003F00
01F800
0FC000
7E0000
F00000
C00000
ENDCHAR
STARTCHAR 003F
ENCODING 63
SWIDTH 347 0
DWIDTH 25 0
BBX 16 47 5 0
BITMAP
07C0
1FF0
7878
E01C
C00E
C007
0007
0007
0007
0007
0007
0007
0007
0007
0007
0007
0007
000F
001E
003C
01F8
01F0
01C0
01C0
01C0
01C0
01C0
01C0
01C0
01C0
01C0
01C0
01C0
01C0
01C0
0000
0000
0000
0000
0000
0000
0000
0000
01C0
01C0
01C0
01C0
ENDCHAR
STARTCHAR 0040
ENCODING 64
SWIDTH 486 0
DWIDTH 35 0
BBX 27 41 4 2
BITMAP
03FF0000
0FFFC000
3C01E000
78007000
70003800
E0001C00
E0001C00
E0001C00
E0001C00
E0001C00
E0001C00
E03F1C00
E0FFDC00
E1FFFC00
E3C0FC00
E7803C00
E7001C00
E7001C00
E7001C00
E7001C00
E7001C00
E7001C00
E7001C00
E7001C00
E7001C00
E7003C00
E7807CE0
E3E0FCE0
E1FFFCE0
E0FFDCE0
E03F1CE0
E00000E0
E00000E0
E00000E0
E00000E0
E00000E0
700001C0
78000380
3C000F00
0FFFFE00
03FFF800
ENDCHAR
STARTCHAR 0041
ENCODING 65
SWIDTH 347 0
DWIDTH 25 0
BBX 17 47 4 0
BITMAP
03E000
0FF800
3C1C00
780E00
F00700
E00380
E00380
E00380
E00380
E00380
E00380
E00380
E00380
E00380
E00380
E00380
E00380
E00380
E00380
E00380
FFFF80
FFFF80
E00380
E00380
E00380
E00380
E00380
E00380
E00380
E00380
E00380
E00380
E00380
E00380
E00380
E00380
E00380
E00380
E00380
E00380
E00380
E00380
E00380
E00380
E00380
E00380
E00380
ENDCHAR
STARTCHAR 0042
ENCODING 66
SWIDTH 347 0
DWIDTH 25 0
BBX 17 47 4 0
BITMAP
FFE000
FFF800
E01C00
E00E00
E00700
E00380
E00380
E00380
E00380
E00380
E00380
E00380
E00380
E00380
E00380
E00380
E00380
E00780
E00F00
E01E00
FFFC00
FFF800
E01E00
E00F00
E00780
E00380
E00380
E00380
E00380
E00380
E00380
E00380
E00380
E00380
E00380
E00380
E00380
E00380
E00380
E00380
E00380
E00380
E00780
E00F00
E01E00
FFF800
FFE000
ENDCHAR
STARTCHAR 0043
ENCODING 67
SWIDTH 347 0
DWIDTH 25 0
BBX 17 47 4 0
BITMAP
03E000
0FF800
3C1E00
780F00
F00300
E00300
E00000
E00000
E00000
E00000
E00000
E00000
E00000
E00000
E00000
E00000
E00000
E00000
E00000
E00000
E00000
E00000
E00000
E00000
E00000
E00000
E00000
E00000
E00000
E00000
E00000
E00000
E00000
E00000
E00000
E00000
E00000
E00000
E00000
E00000
E00000
E00300
F00380
780700
3C1E00
0FF800
03E000
ENDCHAR
STARTCHAR 0044
ENCODING 68
SWIDTH 347 0
DWIDTH 25 0
BBX 17 47 4 0
BITMAP
FFE000
FFF800
E01C00
E00E00
E00700
E00380
E00380
E00380
E00380
E00380
E00380
E00380
E00380
E00380
E00380
E00380
E00380
E00380
E00380
E00380
E00380
E00380
E00380
E00380
E00380
E00380
E00380
E00380
E00380
E00380
E00380
E00380
E00380
E00380
E00380
E00380
E00380
E00380
E00380
E00380
E00380
E00380
E00780
E00F00
E01E00
FFF800
FFE000
ENDCHAR
STARTCHAR 0045
ENCODING 69
SWIDTH 333 0
DWIDTH 24 0
BBX 17 47 4 0
BITMAP
03E000
0FF800
3C1E00
780700
F00300
E00300
E00000
E00000
E00000
E00000
E00000
E00000
E00000
E00000
E00000
E00000
E00000
E00000
E00000
E00000
FFF800
FFF800
E00000
E00000
E00000
E00000
E00000
E00000
E00000
E00000
E00000
E00000
E00000
E00000
E00000
E00000
E00000
E00000
E00000
E00000
E00000
E00300
F00380
780700
3C1E00
0FF800
03E000
ENDCHAR
STARTCHAR 0046
ENCODING 70
SWIDTH 319 0
DWIDTH 23 0
BBX 16 47 4 0
BITMAP
03E0
0FF8
3C1E
7807
F003
E003
E000
E000
E000
E000
E000
E000
E000
E000
E000
E000
E000
E000
E000
E000
FFF8
FFF8
E000
E000
E000
E000
E000
E000
E000
E000
E000
E000
E000
E000
E000
E000
E000
E000
E000
E000
E000
E000
E000
E000
E000
E000
E000
ENDCHAR
STARTCHAR 0047
ENCODING 71
SWIDTH 347 0
DWIDTH 25 0
BBX 17 47 4 0
BITMAP
03E000
0FF800
3C1C00
780E00
F00700
E00300
E00000
E00000
E00000
E00000
E00000
E00000
E00000
E00000
E00000
E00000
E00000
E00000
E00000
E00000
E1FF80
E1FF80
E00380
E00380
E00380
E00380
E00380
E00380
E00380
E00380
E00380
E00380
E00380
E00380
E00380
E00380
E00380
E00380
E00380
E00380
E00380
E00380
F00780
780F00
3C1E00
0FF800
03E000
ENDCHAR
STARTCHAR 0048
ENCODING 72
SWIDTH 347 0
DWIDTH 25 0
BBX 17 47 4 0
BITMAP
E00380
E00380
E00380
E00380
E00380
E00380
E00380
E00380
E00380
E00380
E00380
E00380
E00380
E00380
E00380
E00380
E00380
E00380
E00380
E00380
FFFF80
FFFF80
E00380
E00380
E00380
E00380
E00380
E00380
E00380
E00380
E00380
E00380
E00380
E00380
E00380
E00380
E00380
E00380
E00380
E00380
E00380
E00380
E00380
E00380
E00380
E00380
E00380
ENDCHAR
STARTCHAR 0049
ENCODING 73
SWIDTH 138 0
DWIDTH 10 0
BBX 3 47 4 0
BITMAP
E0
E0
E0
E0
E0
E0
E0
E0
E0
E0
E0
E0
E0
E0
E0
E0
E0
E0
E0
E0
E0
E0
E0
E0
E0
E0
E0
E0
E0
E0
E0
E0
E0
E0
E0
E0
E0
E0
E0
E0
E0
E0
E0
E0
E0
E0
E0
ENDCHAR
STARTCHAR 004A
ENCODING 74
SWIDTH 347 0
DWIDTH 25 0
BBX 17 47 4 0
BITMAP
000380
000380
000380
000380
000380
000380
000380
000380
000380
000380
000380
000380
000380
000380
000380
000380
000380
000380
000380
000380
000380
000380
000380
000380
000380
000380
000380
000380
000380
000380
000380
000380
000380
000380
000380
000380
000380
000380
000380
000380
000380
400380
E00780
700F00
3C3E00
0FF800
03E000
ENDCHAR
STARTCHAR 004B
ENCODING 75
SWIDTH 347 0
DWIDTH 25 0
BBX 17 47 4 0
BITMAP
E00380
E00380
E00380
E00380
E00380
E00380
E00380
E00380
E00380
E00380
E00380
E00380
E00380
E00380
E00380
E00380
E00380
E00780
E00F00
E03E00
E3FC00
EFF800
FF7E00
F80F00
F00780
E00380
E00380
E00380
E00380
E00380
E00380
E00380
E00380
E00380
E00380
E00380
E00380
E00380
E00380
E00380
E00380
E00380
E00380
E00380
E00380
E00380
E00380
ENDCHAR
STARTCHAR 004C
ENCODING 76
SWIDTH 347 0
DWIDTH 25 0
BBX 17 47 4 0
BITMAP
E00000
E00000
E00000
E00000
E00000
E00000
E00000
E00000
E00000
E00000
E00000
E00000
E00000
E00000
E00000
E00000
E00000
E00000
E00000
E00000
E00000
E00000
E00000
E00000
E00000
E00000
E00000
E00000
E00000
E00000
E00000
E00000
E00000
E00000
E00000
E00000
E00000
E00000
E00000
E00000
E00000
E00000
F00000
780000
3C0000
0FFF80
03FF80
ENDCHAR
STARTCHAR 004D
ENCODING 77
SWIDTH 555 0
DWIDTH 40 0
BBX 32 47 4 0
BITMAP
03E007C0
0FF81FF0
3C1C7078
780EE01C
F007C00E
E0038007
E0038007
E0038007
E0038007
E0038007
E0038007
E0038007
E0038007
E0038007
E0038007
E0038007
E0038007
E0038007
E0038007
E0038007
E0038007
E0038007
E0038007
E0038007
E0038007
E0038007
E0038007
E0038007
E0038007
E0038007
E0038007
E0038007
E0038007
E0038007
E0038007
E0038007
E0038007
E0038007
E0038007
E0038007
E0038007
E0038007
E0038007
E0038007
E0038007
E0038007
E0038007
ENDCHAR
STARTCHAR 004E
ENCODING 78
SWIDTH 347 0
DWIDTH 25 0
BBX 17 47 4 0
BITMAP
03E000
0FF800
3C1C00
780E00
F00700
E00380
E00380
E00380
E00380
E00380
E00380
E00380
E00380
E00380
E00380
E00380
E00380
E00380
E00380
E00380
E00380
E00380
E00380
E00380
E00380
E00380
E00380
E00380
E00380
E00380
E00380
E00380
E00380
E00380
E00380
E00380
E00380
E00380
E00380
E00380
E00380
E00380
E00380
E00380
E00380
E00380
E00380
ENDCHAR
STARTCHAR 004F
ENCODING 79
SWIDTH 347 0
DWIDTH 25 0
BBX 17 47 4 0
BITMAP
03E000
0FF800
3C1C00
780E00
F00700
E00380
E00380
E00380
E00380
E00380
E00380
E00380
E00380
E00380
E00380
E00380
E00380
E00380
E00380
E00380
E00380
E00380
E00380
E00380
E00380
E00380
E00380
E00380
E00380
E00380
E00380
E00380
E00380
E00380
E00380
E00380
E00380
E00380
E00380
E00380
E00380
E00380
F00780
780F00
3C1E00
0FF800
03E000
ENDCHAR
STARTCHAR 0050
ENCODING 80
SWIDTH 347 0
DWIDTH 25 0
BBX 17 47 4 0
BITMAP
FFE000
FFF800
E01C00
E00E00
E00700
E00380
E00380
E00380
E00380
E00380
E00380
E00380
E00380
E00380
E00380
E00380
E00380
E00780
E00F00
E01E00
FFFC00
FFF000
E00000
E00000
E00000
E00000
E00000
E00000
E00000
E00000
E00000
E00000
E00000
E00000
E00000
E00000
E00000
E00000
E00000
E00000
E00000
E00000
E00000
E00000
E00000
E00000
E00000
ENDCHAR
STARTCHAR 0051
ENCODING 81
SWIDTH 347 0
DWIDTH 25 0
BBX 24 51 4 -4
BITMAP
03E000
0FF800
3C1C00
780E00
700700
E00380
E00380
E00380
E00380
E00380
E00380
E00380
E00380
E00380
E00380
E00380
E00380
E00380
E00380
E00380
E00380
E00380
E00380
E00380
E00380
E00380
E00380
E00380
E00380
E00380
E00380
E00380
E00380
E00380
E00380
E00380
E00380
E00380
E00380
E00380
E00380
E00380
F00780
781F00
3FFE00
1FFC00
3FF800
703C00
600F00
4007FF
0001FE
ENDCHAR
STARTCHAR 0052
ENCODING 82
SWIDTH 347 0
DWIDTH 25 0
BBX 17 47 4 0
BITMAP
FFE000
FFF800
E01C00
E00E00
E00700
E00380
E00380
E00380
E00380
E00380
E00380
E00380
E00380
E00380
E00380
E00380
E00380
E00780
E00F00
E01E00
FFFC00
FFF800
E01E00
E00F00
E00780
E00380
E00380
E00380
E00380
E00380
E00380
E00380
E00380
E00380
E00380
E00380
E00380
E00380
E00380
E00380
E00380
E00380
E00380
E00380
E00380
E00380
E00380
ENDCHAR
STARTCHAR 0053
ENCODING 83
SWIDTH 347 0
DWIDTH 25 0
BBX 17 47 4 0
BITMAP
03E000
0FF800
3C1C00
780E00
F00700
E00300
E00000
E00000
E00000
E00000
E00000
E00000
E00000
E00000
E00000
E00000
E00000
F00000
780000
3C0000
1FE000
03F800
001E00
000F00
000780
000380
000380
000380
000380
000380
000380
000380
000380
000380
000380
000380
000380
000380
000380
000380
000380
400380
E00780
700F00
3C3E00
0FF800
03E000
ENDCHAR
STARTCHAR 0054
ENCODING 84
SWIDTH 347 0
DWIDTH 25 0
BBX 15 47 5 0
BITMAP
07C0
1FF0
7FFC
F39E
E38E
C386
0380
0380
0380
0380
0380
0380
0380
0380
0380
0380
0380
0380
0380
0380
0380
0380
0380
0380
0380
0380
0380
0380
0380
0380
0380
0380
0380
0380
0380
0380
0380
0380
0380
0380
0380
0380
0380
0380
0380
0380
0380
ENDCHAR
STARTCHAR 0055
ENCODING 85
SWIDTH 347 0
DWIDTH 25 0
BBX 17 47 4 0
BITMAP
E00380
E00380
E00380
E00380
E00380
E00380
E00380
E00380
E00380
E00380
E00380
E00380
E00380
E00380
E00380
E00380
E00380
E00380
E00380
E00380
E00380
E00380
E00380
E00380
E00380
E00380
E00380
E00380
E00380
E00380
E00380
E00380
E00380
E00380
E00380
E00380
E00380
E00380
E00380
E00380
E00380
E00380
F00780
780F00
3C1E00
0FF800
03E000
ENDCHAR
STARTCHAR 0056
ENCODING 86
SWIDTH 347 0
DWIDTH 25 0
BBX 17 47 4 0
BITMAP
C00180
C00180
C00180
C00180
600300
600300
600300
600300
600300
600300
300700
300600
300600
300600
300600
300600
300600
180C00
180C00
180C00
180C00
180C00
180C00
0C1800
0C1800
0C1800
0C1800
0C1800
0C1800
063800
063000
063000
063000
063000
063000
063000
036000
036000
036000
036000
036000
036000
01C000
01C000
01C000
01C000
01C000
ENDCHAR
STARTCHAR 0057
ENCODING 87
SWIDTH 555 0
DWIDTH 40 0
BBX 32 47 4 0
BITMAP
E0038007
E0038007
E0038007
E0038007
E0038007
E0038007
E0038007
E0038007
E0038007
E0038007
E0038007
E0038007
E0038007
E0038007
E0038007
E0038007
E0038007
E0038007
E0038007
E0038007
E0038007
E0038007
E0038007
E0038007
E0038007
E0038007
E0038007
E0038007
E0038007
E0038007
E0038007
E0038007
E0038007
E0038007
E0038007
E0038007
E0038007
E0038007
E0038007
E0038007
E0038007
E0038007
F007C00F
780FE01E
3C1E707C
0FF83FF0
03E00FC0
ENDCHAR
STARTCHAR 0058
ENCODING 88
SWIDTH 347 0
DWIDTH 25 0
BBX 17 47 4 -1
BITMAP
C00180
C00180
600300
600300
600300
300600
300600
300600
180E00
180C00
180C00
0C1C00
0C1800
0C1800
0E3800
063000
063000
063000
036000
036000
036000
01C000
01C000
01C000
01C000
01C000
01C000
03E000
036000
036000
077000
063000
063000
063000
0C1800
0C1800
0C1800
180C00
180C00
180C00
300600
300600
300600
700300
600300
600300
E00380
ENDCHAR
STARTCHAR 0059
ENCODING 89
SWIDTH 347 0
DWIDTH 25 0
BBX 17 47 4 0
BITMAP
E00380
E00380
E00380
E00380
E00380
E00380
E00380
E00380
E00380
E00380
E00380
E00380
E00380
E00380
E00380
E00380
E00380
F00780
780F00
3C3E00
1FFC00
0FF000
01C000
01C000
01C000
01C000
01C000
01C000
01C000
01C000
01C000
01C000
01C000
01C000
01C000
01C000
01C000
01C000
01C000
01C000
01C000
01C000
01C000
01C000
01C000
01C000
01C000
ENDCHAR
STARTCHAR 005A
ENCODING 90
SWIDTH 347 0
DWIDTH 25 0
BBX 17 47 4 0
BITMAP
03E000
0FF800
3C1E00
780700
700300
600180
000180
000300
000300
000700
000600
000600
000C00
000C00
001C00
001800
001800
003000
003000
007000
006000
006000
00C000
00C000
01C000
018000
018000
030000
030000
070000
060000
060000
0C0000
0C0000
1C0000
180000
180000
300000
300000
700000
600000
600300
E00380
380F00
1C1E00
0FF800
03E000
ENDCHAR
STARTCHAR 005B
ENCODING 91
SWIDTH 208 0
DWIDTH 15 0
BBX 7 61 4 -7
BITMAP
FE
FE
E0
E0
E0
E0
E0
E0
E0
E0
E0
E0
E0
E0
E0
E0
E0
E0
E0
E0
E0
E0
E0
E0
E0
E0
E0
E0
E0
E0
E0
E0
E0
E0
E0
E0
E0
E0
E0
E0
E0
E0
E0
E0
E0
E0
E0
E0
E0
E0
E0
E0
E0
E0
E0
E0
E0
E0
E0
FE
FE
ENDCHAR
STARTCHAR 005C
ENCODING 92
SWIDTH 347 0
DWIDTH 25 0
BBX 17 47 4 -1
BITMAP
C00000
C00000
600000
600000
600000
300000
300000
300000
180000
180000
180000
0C0000
0C0000
0C0000
0E0000
060000
060000
060000
030000
030000
030000
018000
018000
018000
00C000
00C000
00C000
006000
006000
006000
007000
003000
003000
003000
001800
001800
001800
000C00
000C00
000C00
000600
000600
000600
000300
000300
000300
000380
ENDCHAR
STARTCHAR 005D
ENCODING 93
SWIDTH 208 0
DWIDTH 15 0
BBX 7 61 4 -7
BITMAP
FE
FE
0E
0E
0E
0E
0E
0E
0E
0E
0E
0E
0E
0E
0E
0E
0E
0E
0E
0E
0E
0E
0E
0E
0E
0E
0E
0E
0E
0E
0E
0E
0E
0E
0E
0E
0E
0E
0E
0E
0E
0E
0E
0E
0E
0E
0E
0E
0E
0E
0E
0E
0E
0E
0E
0E
0E
0E
0E
FE
FE
ENDCHAR
STARTCHAR 005E
ENCODING 94
SWIDTH 277 0
DWIDTH 20 0
BBX 12 10 4 36
BITMAP
0700
0F00
0F80
1980
19C0
30C0
30C0
6060
6060
C030
ENDCHAR
STARTCHAR 005F
ENCODING 95
SWIDTH 472 0
DWIDTH 34 0
BBX 26 2 4 -14
BITMAP
FFFFFFC0
FFFFFFC0
ENDCHAR
STARTCHAR 0060
ENCODING 96
SWIDTH 236 0
DWIDTH 17 0
BBX 9 10 4 38
BITMAP
E000
6000
3000
3800
1800
0C00
0E00
0600
0300
0380
ENDCHAR
STARTCHAR 0061
ENCODING 97
SWIDTH 347 0
DWIDTH 25 0
BBX 17 32 4 0
BITMAP
03E000
0FF800
3C3E00
700F00
E00780
400380
000380
000380
000380
000380
000380
000380
07E380
1FFB80
3FFF80
7C1F80
F00F80
E00780
E00380
E00380
E00380
E00380
E00380
E00380
E00380
E00380
E00380
F00780
780F80
3F7F80
1FFB80
07E380
ENDCHAR
STARTCHAR 0062
ENCODING 98
SWIDTH 347 0
DWIDTH 25 0
BBX 17 47 4 0
BITMAP
E00000
E00000
E00000
E00000
E00000
E00000
E00000
E00000
E00000
E00000
E00000
E00000
E00000
E00000
E00000
E3E000
EFF800
FFFE00
F80F00
F00780
E00380
E00380
E00380
E00380
E00380
E00380
E00380
E00380
E00380
E00380
E00380
E00380
E00380
E00380
E00380
E00380
E00380
E00380
E00380
E00380
E00380
E00380
F00780
F80F00
FF7E00
EFF800
E3E000
ENDCHAR
STARTCHAR 0063
ENCODING 99
SWIDTH 347 0
DWIDTH 25 0
BBX 17 32 4 0
BITMAP
03E000
0FF800
3C1E00
780700
F00380
E00100
E00000
E00000
E00000
E00000
E00000
E00000
E00000
E00000
E00000
E00000
E00000
E00000
E00000
E00000
E00000
E00000
E00000
E00000
E00000
E00000
E00000
F00380
780700
3C1E00
1FF800
03E000
ENDCHAR
STARTCHAR 0064
ENCODING 100
SWIDTH 347 0
DWIDTH 25 0
BBX 17 47 4 0
BITMAP
000380
000380
000380
000380
000380
000380
000380
000380
000380
000380
000380
000380
000380
000380
000380
07E380
1FFB80
3FFF80
780F80
F00780
E00380
E00380
E00380
E00380
E00380
E00380
E00380
E00380
E00380
E00380
E00380
E00380
E00380
E00380
E00380
E00380
E00380
E00380
E00380
E00380
E00380
E00380
F00780
781F80
3FFF80
1FFB80
07E380
ENDCHAR
STARTCHAR 0065
ENCODING 101
SWIDTH 347 0
DWIDTH 25 0
BBX 17 32 4 0
BITMAP
03E000
0FF800
3C1E00
780F00
F00780
E00380
E00380
E00380
E00380
E00380
E00380
E00380
E00380
E00380
E00780
F00F00
FC1F00
FFFE00
EFF800
E3E000
E00000
E00000
E00000
E00000
E00000
E00000
E00200
E00780
780F00
3C1E00
1FF800
03E000
ENDCHAR
STARTCHAR 0066
ENCODING 102
SWIDTH 263 0
DWIDTH 19 0
BBX 16 47 4 0
BITMAP
03E0
0FF8
3C1C
780F
F003
E003
E000
E000
E000
E000
E000
E000
E000
E000
E000
FFF8
FFF8
E000
E000
E000
E000
E000
E000
E000
E000
E000
E000
E000
E000
E000
E000
E000
E000
E000
E000
E000
E000
E000
E000
E000
E000
E000
E000
E000
E000
E000
E000
ENDCHAR
STARTCHAR 0067
ENCODING 103
SWIDTH 347 0
DWIDTH 25 0
BBX 17 47 4 -15
BITMAP
07E380
1FFB80
3FFF80
780F80
F00780
E00380
E00380
E00380
E00380
E00380
E00380
E00380
E00380
E00380
E00380
E00380
E00380
E00380
E00380
E00380
E00380
E00380
E00380
E00380
E00380
E00380
E00380
F00780
780F80
3F7F80
1FFB80
07E380
000380
000380
000380
000380
000380
000380
000380
000380
000380
000380
000700
000F00
001E00
007800
006000
ENDCHAR
STARTCHAR 0068
ENCODING 104
SWIDTH 347 0
DWIDTH 25 0
BBX 17 47 4 0
BITMAP
E00000
E00000
E00000
E00000
E00000
E00000
E00000
E00000
E00000
E00000
E00000
E00000
E00000
E00000
E00000
E3E000
EFF800
FC1E00
F80F00
F00780
E00380
E00380
E00380
E00380
E00380
E00380
E00380
E00380
E00380
E00380
E00380
E00380
E00380
E00380
E00380
E00380
E00380
E00380
E00380
E00380
E00380
E00380
E00380
E00380
E00380
E00380
E00380
ENDCHAR
STARTCHAR 0069
ENCODING 105
SWIDTH 138 0
DWIDTH 10 0
BBX 3 42 4 0
BITMAP
E0
E0
E0
E0
00
00
00
00
00
00
E0
E0
E0
E0
E0
E0
E0
E0
E0
E0
E0
E0
E0
E0
E0
E0
E0
E0
E0
E0
E0
E0
E0
E0
E0
E0
E0
E0
E0
E0
E0
E0
ENDCHAR
STARTCHAR 006A
ENCODING 106
SWIDTH 166 0
DWIDTH 12 0
BBX 9 57 -1 -15
BITMAP
0380
0380
0380
0380
0000
0000
0000
0000
0000
0000
0380
0380
0380
0380
0380
0380
0380
0380
0380
0380
0380
0380
0380
0380
0380
0380
0380
0380
0380
0380
0380
0380
0380
0380
0380
0380
0380
0380
0380
0380
0380
0380
0380
0380
0380
0380
0380
0380
0380
0380
0380
0380
0700
0F00
3C00
F800
E000
ENDCHAR
STARTCHAR 006B
ENCODING 107
SWIDTH 347 0
DWIDTH 25 0
BBX 17 47 4 0
BITMAP
E00000
E00000
E00000
E00000
E00000
E00000
E00000
E00000
E00000
E00000
E00000
E00000
E00000
E00000
E00000
E00380
E00380
E00380
E00380
E00380
E00380
E00380
E00780
E00F00
E01E00
E3FC00
EFF800
FC1E00
F80F00
F00780
E00380
E00380
E00380
E00380
E00380
E00380
E00380
E00380
E00380
E00380
E00380
E00380
E00380
E00380
E00380
E00380
E00380
ENDCHAR
STARTCHAR 006C
ENCODING 108
SWIDTH 138 0
DWIDTH 10 0
BBX 3 47 4 0
BITMAP
E0
E0
E0
E0
E0
E0
E0
E0
E0
E0
E0
E0
E0
E0
E0
E0
E0
E0
E0
E0
E0
E0
E0
E0
E0
E0
E0
E0
E0
E0
E0
E0
E0
E0
E0
E0
E0
E0
E0
E0
E0
E0
E0
E0
E0
E0
E0
ENDCHAR
STARTCHAR 006D
ENCODING 109
SWIDTH 555 0
DWIDTH 40 0
BBX 32 32 4 0
BITMAP
E3F007C0
EFFC1FF0
FC1E787C
F80FE01E
F007C00F
E0038007
E0038007
E0038007
E0038007
E0038007
E0038007
E0038007
E0038007
E0038007
E0038007
E0038007
E0038007
E0038007
E0038007
E0038007
E0038007
E0038007
E0038007
E0038007
E0038007
E0038007
E0038007
E0038007
E0038007
E0038007
E0038007
E0038007
ENDCHAR
STARTCHAR 006E
ENCODING 110
SWIDTH 347 0
DWIDTH 25 0
BBX 17 32 4 0
BITMAP
E3E000
EFF800
FC1E00
F80F00
F00780
E00380
E00380
E00380
E00380
E00380
E00380
E00380
E00380
E00380
E00380
E00380
E00380
E00380
E00380
E00380
E00380
E00380
E00380
E00380
E00380
E00380
E00380
E00380
E00380
E00380
E00380
E00380
ENDCHAR
STARTCHAR 006F
ENCODING 111
SWIDTH 347 0
DWIDTH 25 0
BBX 17 32 4 0
BITMAP
03E000
0FF800
3C1E00
780F00
F00780
E00380
E00380
E00380
E00380
E00380
E00380
E00380
E00380
E00380
E00380
E00380
E00380
E00380
E00380
E00380
E00380
E00380
E00380
E00380
E00380
E00380
E00380
F00780
780F00
3C1E00
1FF800
03E000
ENDCHAR
STARTCHAR 0070
ENCODING 112
SWIDTH 347 0
DWIDTH 25 0
BBX 17 47 4 -15
BITMAP
E3E000
EFF800
FFFE00
F80F00
F00780
E00380
E00380
E00380
E00380
E00380
E00380
E00380
E00380
E00380
E00380
E00380
E00380
E00380
E00380
E00380
E00380
E00380
E00380
E00380
E00380
E00380
E00380
F00780
F80F00
FF7E00
EFF800
E3E000
E00000
E00000
E00000
E00000
E00000
E00000
E00000
E00000
E00000
E00000
E00000
E00000
E00000
E00000
E00000
ENDCHAR
STARTCHAR 0071
ENCODING 113
SWIDTH 347 0
DWIDTH 25 0
BBX 17 47 4 -15
BITMAP
07E380
1FFB80
3FFF80
780F80
F00780
E00380
E00380
E00380
E00380
E00380
E00380
E00380
E00380
E00380
E00380
E00380
E00380
E00380
E00380
E00380
E00380
E00380
E00380
E00380
E00380
E00380
E00380
F00780
780F80
3F7F80
1FFB80
07E380
000380
000380
000380
000380
000380
000380
000380
000380
000380
000380
000380
000380
000380
000380
000380
ENDCHAR
STARTCHAR 0072
ENCODING 114
SWIDTH 305 0
DWIDTH 22 0
BBX 17 32 4 0
BITMAP
E3E000
EFF800
FC1E00
F80700
F00380
E00100
E00000
E00000
E00000
E00000
E00000
E00000
E00000
E00000
E00000
E00000
E00000
E00000
E00000
E00000
E00000
E00000
E00000
E00000
E00000
E00000
E00000
E00000
E00000
E00000
E00000
E00000
ENDCHAR
STARTCHAR 0073
ENCODING 115
SWIDTH 347 0
DWIDTH 25 0
BBX 17 32 4 0
BITMAP
03E000
0FF800
3C1E00
780F00
F00780
E00200
E00000
E00000
E00000
E00000
E00000
E00000
F00000
780000
3C0000
1FE000
03F800
001E00
000F00
000780
000380
000380
000380
000380
000380
000380
000380
E00780
700F00
3C3E00
0FF800
03E000
ENDCHAR
STARTCHAR 0074
ENCODING 116
SWIDTH 250 0
DWIDTH 18 0
BBX 13 42 4 0
BITMAP
E000
E000
E000
E000
E000
E000
E000
E000
E000
E000
E000
FFF8
FFF8
E000
E000
E000
E000
E000
E000
E000
E000
E000
E000
E000
E000
E000
E000
E000
E000
E000
E000
E000
E000
E000
E000
E000
E000
F000
7800
3C00
0F80
0380
ENDCHAR
STARTCHAR 0075
ENCODING 117
SWIDTH 347 0
DWIDTH 25 0
BBX 17 32 4 0
BITMAP
E00380
E00380
E00380
E00380
E00380
E00380
E00380
E00380
E00380
E00380
E00380
E00380
E00380
E00380
E00380
E00380
E00380
E00380
E00380
E00380
E00380
E00380
E00380
E00380
E00380
E00380
E00380
F00780
780F80
3FFF80
1FFB80
07E380
ENDCHAR
STARTCHAR 0076
ENCODING 118
SWIDTH 305 0
DWIDTH 22 0
BBX 17 32 3 0
BITMAP
C00180
C00300
C00300
C00300
600300
600600
600600
600600
600600
300E00
300C00
300C00
300C00
180C00
181800
181800
181800
0C1800
0C3000
0C3000
0C3000
0C3000
067000
066000
066000
066000
03E000
03C000
03C000
03C000
01C000
018000
ENDCHAR
STARTCHAR 0077
ENCODING 119
SWIDTH 513 0
DWIDTH 37 0
BBX 32 32 2 0
BITMAP
E0038007
E0038007
E0038007
E0038007
E0038007
E0038007
E0038007
E0038007
E0038007
E0038007
E0038007
E0038007
E0038007
E0038007
E0038007
E0038007
E0038007
E0038007
E0038007
E0038007
E0038007
E0038007
E0038007
E0038007
E0038007
E0038007
E0038007
7003C007
3807600E
1E1E383C
0FFC1FF8
03F007E0
ENDCHAR
STARTCHAR 0078
ENCODING 120
SWIDTH 319 0
DWIDTH 23 0
BBX 17 32 3 -1
BITMAP
C00380
C00300
600700
600600
300E00
300C00
380C00
181800
1C1800
0C3000
0E3000
066000
066000
03E000
03C000
01C000
018000
03C000
03C000
03E000
066000
067000
0C3000
0C3000
181800
181800
380C00
300C00
700600
600600
E00300
C00300
ENDCHAR
STARTCHAR 0079
ENCODING 121
SWIDTH 347 0
DWIDTH 25 0
BBX 17 47 4 -15
BITMAP
E00380
E00380
E00380
E00380
E00380
E00380
E00380
E00380
E00380
E00380
E00380
E00380
E00380
E00380
E00380
E00380
E00380
E00380
E00380
E00380
E00380
E00380
E00380
E00380
E00380
E00380
E00380
F00780
780F80
3FFF80
1FFB80
07E380
000380
000380
000380
000380
000380
000380
000380
000380
000380
000380
000700
000F00
001C00
007800
006000
ENDCHAR
STARTCHAR 007A
ENCODING 122
SWIDTH 347 0
DWIDTH 25 0
BBX 17 32 4 0
BITMAP
03E000
0FF800
3C1E00
780700
F00380
200380
000300
000700
000600
000C00
001C00
001800
003000
007000
006000
00C000
01C000
018000
030000
070000
060000
0E0000
1C0000
180000
380000
700000
600200
F00380
380700
1C1E00
0FF800
03E000
ENDCHAR
STARTCHAR 007B
ENCODING 123
SWIDTH 305 0
DWIDTH 22 0
BBX 15 61 4 -7
BITMAP
000E
003E
00F0
01E0
03C0
0380
0380
0380
0380
0380
0380
0380
0380
0380
0380
0380
0380
0380
0380
0380
0380
0380
0380
0380
0380
0380
0380
0700
0E00
3C00
F000
F800
3E00
0F00
0780
0380
0380
0380
0380
0380
0380
0380
0380
0380
0380
0380
0380
0380
0380
0380
0380
0380
0380
0380
0380
0380
03C0
01E0
00F0
007E
000E
ENDCHAR
STARTCHAR 007C
ENCODING 124
SWIDTH 138 0
DWIDTH 10 0
BBX 3 61 4 -7
BITMAP
E0
E0
E0
E0
E0
E0
E0
E0
E0
E0
E0
E0
E0
E0
E0
E0
E0
E0
E0
E0
E0
E0
E0
E0
E0
E0
E0
E0
E0
E0
E0
E0
E0
E0
E0
E0
E0
E0
E0
E0
E0
E0
E0
E0
E0
E0
E0
E0
E0
E0
E0
E0
E0
E0
E0
E0
E0
E0
E0
E0
E0
ENDCHAR
STARTCHAR 007D
ENCODING 125
SWIDTH 305 0
DWIDTH 22 0
BBX 15 61 4 -7
BITMAP
E000
F800
3C00
0F00
0700
0380
0380
0380
0380
0380
0380
0380
0380
0380
0380
0380
0380
0380
0380
0380
0380
0380
0380
0380
0380
0380
0380
01C0
00E0
0070
001E
007E
00F0
01E0
03C0
0380
0380
0380
0380
0380
0380
0380
0380
0380
0380
0380
0380
0380
0380
0380
0380
0380
0380
0380
0380
0380
0780
0F00
3E00
F800
E000
ENDCHAR
STARTCHAR 007E
ENCODING 126
SWIDTH 472 0
DWIDTH 34 0
BBX 26 7 4 20
BITMAP
1FC00000
3FF00080
707801C0
E01C0380
C00F0300
0003FF00
0000FC00
ENDCHAR
STARTCHAR 00A0
ENCODING 160
SWIDTH 1027 0
DWIDTH 74 0
BBX 67 58 3 0
BITMAP
018000038000000000
034004048000000000
030004048008000000
030CE20494E8380000
03D2940495B8C80000
022294069518880000
02229407A518580000
02229407A518600000
02229406A5B8800000
021C84039CE0700000
000000004000000000
000000038000000000
000000000000000000
000000000000000000
000000000000000000
000000000000000000
800000000000000000
800100000000000000
800100000380000000
BF8770032C03055800
A73B9056AC04E54800
A5339056AC04654800
A4F3E056AC04664800
A5538056A804660800
008C70111003880000
000000100000000000
000000100000000000
000000000000000000
000000000000000000
000000000000000000
000000000000000000
000000000000000000
000100000000000000
000100000000000000
6C730062033803CEE0
9355009E05458202A0
9355009A25458206A0
9355009A0545021AA0
9355009A05450212A0
12450094050401CC80
000200000200000000
000000000000000000
000000000000000000
000000000000000000
000000000000000000
000000000000000000
000000000000000000
000000000040000000
800000000040000000
A63502B2014C88B000
8D0E02EA83D1C66800
8D2C02EA8391C62800
8EDC02EA83A19E2800
8C8C02EA83A2162800
077402B980018C2800
000001800000000000
000000800000000000
000001000000000000
ENDCHAR
STARTCHAR 00A1
ENCODING 161
SWIDTH 138 0
DWIDTH 10 0
BBX 3 47 4 -7
BITMAP
E0
E0
E0
E0
00
00
00
00
00
00
00
00
00
E0
E0
E0
E0
E0
E0
E0
E0
E0
E0
E0
E0
E0
E0
E0
E0
E0
E0
E0
E0
E0
E0
E0
E0
E0
E0
E0
E0
E0
E0
E0
E0
E0
E0
ENDCHAR
STARTCHAR 00A2
ENCODING 162
SWIDTH 347 0
DWIDTH 25 0
BBX 17 32 4 0
BITMAP
01C000
01C000
01C000
0FF800
1FFC00
3DDE00
71C700
E1C380
E1C000
E1C000
E1C000
E1C000
E1C000
E1C000
E1C000
E1C000
E1C000
E1C000
E1C000
E1C000
E1C000
E1C000
E1C000
E1C000
E1C380
71C700
7DDE00
1FFC00
0FF800
01C000
01C000
01C000
ENDCHAR
STARTCHAR 00A3
ENCODING 163
SWIDTH 347 0
DWIDTH 25 0
BBX 17 47 4 0
BITMAP
03E000
0FF800
3C1C00
700F00
E00700
C00300
C00000
C00000
C00000
C00000
C00000
C00000
C00000
C00000
C00000
C00000
C00000
FFF800
FFF800
C00000
C00000
C00000
C00000
C00000
C00000
FFF800
FFF800
C00000
C00000
C00000
C00000
C00000
C00000
C00000
C00000
C00000
C00000
C00000
C00000
C00000
C00000
C00000
E00000
700000
1C0000
3FFF80
FFFF80
ENDCHAR
STARTCHAR 00A4
ENCODING 164
SWIDTH 444 0
DWIDTH 32 0
BBX 24 24 4 13
BITMAP
000002
C00007
607E0E
31FFDC
1BC3F8
0F80F0
0F0078
0E0038
0E0038
0E0038
0E0038
0E0038
0E0038
0E0038
0E0038
0E0038
0E0038
0E0038
0F0078
1F80F8
3BC1FC
71FF8E
E07E07
400002
ENDCHAR
STARTCHAR 00A5
ENCODING 165
SWIDTH 347 0
DWIDTH 25 0
BBX 17 47 4 0
BITMAP
E00380
E00380
E00380
E00380
E00380
E00380
E00380
E00380
E00380
E00380
E00380
E00380
E00380
E00380
E00380
E00380
E00380
E00780
780F00
3C1E00
1FFC00
0FF800
01C000
01C000
01C000
01C000
01C000
01C000
01C000
01C000
FFFF80
FFFF80
01C000
01C000
01C000
01C000
01C000
01C000
FFFF80
FFFF80
01C000
01C000
01C000
01C000
01C000
01C000
01C000
ENDCHAR
STARTCHAR 00A6
ENCODING 166
SWIDTH 138 0
DWIDTH 10 0
BBX 3 52 4 -1
BITMAP
E0
E0
E0
E0
E0
E0
E0
E0
E0
E0
E0
E0
E0
E0
E0
E0
E0
E0
E0
E0
E0
E0
E0
00
00
00
00
00
00
E0
E0
E0
E0
E0
E0
E0
E0
E0
E0
E0
E0
E0
E0
E0
E0
E0
E0
E0
E0
E0
E0
E0
ENDCHAR
STARTCHAR 00A7
ENCODING 167
SWIDTH 347 0
DWIDTH 25 0
BBX 17 46 4 -6
BITMAP
07E000
1FF800
3C1E00
780700
F00380
E00000
E00000
E00000
E00000
E00000
E00000
E00000
F80000
7C0000
1FE000
0FF800
1C1C00
380E00
700700
E00380
E00380
E00380
E00380
E00380
E00380
E00380
E00380
F00700
780E00
3C1C00
0FF800
07FC00
003F00
000F00
000780
000380
000380
000380
000380
000380
000380
E00780
700F00
3C3E00
1FF800
07E000
ENDCHAR
STARTCHAR 00A8
ENCODING 168
SWIDTH 250 0
DWIDTH 18 0
BBX 10 5 4 39
BITMAP
E1C0
E1C0
E1C0
E1C0
E1C0
ENDCHAR
STARTCHAR 00A9
ENCODING 169
SWIDTH 361 0
DWIDTH 26 0
BBX 18 31 4 15
BITMAP
180600
780780
E001C0
C000C0
C3E0C0
C7F0C0
CE38C0
CC00C0
CC00C0
CC00C0
CC00C0
CC00C0
CC00C0
CC00C0
CC00C0
CC00C0
CC00C0
CC00C0
CC00C0
CC00C0
CC00C0
CC00C0
CC00C0
CC00C0
CE38C0
C7F0C0
C3E0C0
C000C0
E001C0
780780
380600
ENDCHAR
STARTCHAR 00AA
ENCODING 170
SWIDTH 347 0
DWIDTH 25 0
BBX 17 25 4 22
BITMAP
03E000
1FF800
3C3E00
700F00
E00780
000380
000380
000380
000380
07E380
1FFB80
3C3F80
780F80
F00780
E00380
E00380
E00380
E00380
E00380
E00780
F00F80
7C1F80
3FFF80
1FFB80
07E380
ENDCHAR
STARTCHAR 00AB
ENCODING 171
SWIDTH 361 0
DWIDTH 26 0
BBX 18 18 4 12
BITMAP
008040
0180C0
0381C0
070380
1E0700
3C0F00
7C1E00
F83C00
F07800
F07800
F87C00
781E00
3C0F00
1E0700
070380
0301C0
0100C0
000040
ENDCHAR
STARTCHAR 00AC
ENCODING 172
SWIDTH 430 0
DWIDTH 31 0
BBX 24 8 4 14
BITMAP
FFFFE0
FFFFF0
000038
00001C
00000E
00000E
000007
000007
ENDCHAR
STARTCHAR 00AD
ENCODING 173
SWIDTH 416 0
DWIDTH 30 0
BBX 22 2 4 20
BITMAP
FFFFFC
FFFFFC
ENDCHAR
STARTCHAR 00AE
ENCODING 174
SWIDTH 361 0
DWIDTH 26 0
BBX 18 31 4 15
BITMAP
180600
780780
E001C0
C000C0
C7E0C0
C7F0C0
C638C0
C618C0
C618C0
C618C0
C618C0
C618C0
C638C0
C7F0C0
C7F0C0
C638C0
C618C0
C618C0
C618C0
C618C0
C618C0
C618C0
C618C0
C618C0
C618C0
C618C0
C618C0
C618C0
E001C0
780780
380600
ENDCHAR
STARTCHAR 00B0
ENCODING 176
SWIDTH 277 0
DWIDTH 20 0
BBX 12 18 4 31
BITMAP
0F00
3F80
39C0
30C0
70E0
70E0
E070
E070
E070
E070
E070
E0F0
60E0
70E0
70C0
39C0
3F80
0F00
ENDCHAR
STARTCHAR 00B1
ENCODING 177
SWIDTH 416 0
DWIDTH 30 0
BBX 23 27 4 5
BITMAP
003800
003800
003800
003800
003800
003800
003800
003800
003800
003800
FFFFFE
FFFFFE
003800
003800
003800
003800
003800
003800
003800
003800
003800
003800
000000
000000
000000
FFFFFE
FFFFFE
ENDCHAR
STARTCHAR 00B2
ENCODING 178
SWIDTH 277 0
DWIDTH 20 0
BBX 12 33 4 14
BITMAP
0F00
3FC0
70E0
E070
C030
C030
0030
0030
0030
0030
0030
0030
0070
00E0
1FC0
3F00
7000
E000
C000
C000
C000
C000
C000
C000
C000
C000
C000
C000
C000
E070
70E0
3FC0
0F00
ENDCHAR
STARTCHAR 00B3
ENCODING 179
SWIDTH 277 0
DWIDTH 20 0
BBX 12 33 4 14
BITMAP
0F00
3FC0
70E0
E070
C030
C030
0030
0030
0030
0030
0030
0030
0070
00E0
0380
03C0
00E0
0070
0030
0030
0030
0030
0030
0030
0030
0030
0030
C030
C030
E070
70E0
3FC0
0F00
ENDCHAR
STARTCHAR 00B4
ENCODING 180
SWIDTH 236 0
DWIDTH 17 0
BBX 9 10 4 36
BITMAP
0380
0300
0600
0E00
0C00
1800
3800
3000
6000
E000
ENDCHAR
STARTCHAR 00B5
ENCODING 181
SWIDTH 347 0
DWIDTH 25 0
BBX 17 41 4 -9
BITMAP
E00380
E00380
E00380
E00380
E00380
E00380
E00380
E00380
E00380
E00380
E00380
E00380
E00380
E00380
E00380
E00380
E00380
E00380
E00380
E00380
E00380
E00380
E00380
E00380
E00380
E00380
E00380
F00780
F80F00
FFFE00
EFF800
E3E000
E0E000
E07000
E03800
E01E00
E00F80
E00380
E00000
E00000
E00000
ENDCHAR
STARTCHAR 00B6
ENCODING 182
SWIDTH 361 0
DWIDTH 26 0
BBX 18 50 5 -4
BITMAP
07FFC0
1FFFC0
3FF9C0
7FF9C0
FFF9C0
FFF9C0
FFF9C0
FFF9C0
FFF9C0
FFF9C0
FFF9C0
FFF9C0
FFF9C0
FFF9C0
FFF9C0
FFF9C0
FFF9C0
FFF9C0
7FF9C0
3FF9C0
1FF9C0
07F9C0
0039C0
0039C0
0039C0
0039C0
0039C0
0039C0
0039C0
0039C0
0039C0
0039C0
0039C0
0039C0
0039C0
0039C0
0039C0
0039C0
0039C0
0039C0
0039C0
0039C0
0039C0
0039C0
0039C0
0039C0
0039C0
0039C0
0039C0
0039C0
ENDCHAR
STARTCHAR 00B7
ENCODING 183
SWIDTH 138 0
DWIDTH 10 0
BBX 3 5 4 20
BITMAP
E0
E0
E0
E0
E0
ENDCHAR
STARTCHAR 00B8
ENCODING 184
SWIDTH 222 0
DWIDTH 16 0
BBX 9 15 4 -13
BITMAP
E000
E000
E000
F800
3C00
0F00
0780
0380
0380
0380
0780
0F00
3E00
F800
E000
ENDCHAR
STARTCHAR 00B9
ENCODING 185
SWIDTH 277 0
DWIDTH 20 0
BBX 12 33 4 14
BITMAP
0600
0600
0600
0600
0600
0600
0600
0600
0600
0600
0600
0600
0600
0600
0600
0600
0600
0600
0600
0600
0600
0600
0600
0600
0600
0600
0600
0600
0600
C630
76E0
3FC0
0F00
ENDCHAR
STARTCHAR 00BA
ENCODING 186
SWIDTH 277 0
DWIDTH 20 0
BBX 12 13 4 36
BITMAP
1F00
3FC0
38C0
7060
E070
E070
E070
E070
E0F0
70E0
79E0
3FC0
1F00
ENDCHAR
STARTCHAR 00BB
ENCODING 187
SWIDTH 361 0
DWIDTH 26 0
BBX 18 18 4 12
BITMAP
004000
C06000
E07000
703800
781C00
3C0E00
1E0F00
0F07C0
0F83C0
0783C0
0F07C0
1E0F80
3C0F00
381C00
703800
E07000
C06000
804000
ENDCHAR
STARTCHAR 00BC
ENCODING 188
SWIDTH 652 0
DWIDTH 47 0
BBX 39 47 4 1
BITMAP
0600003000
0600006000
0600006000
0600006000
060000C000
060000C000
060000C000
0600018000
0600018000
0600018000
0600038000
0600030000
0600030000
0600070000
06000600C0
06000601C0
0600060180
06000C0180
06000C0180
06000C0380
0600180300
0600180300
0600180300
0600300630
0600300630
0600300630
0600700630
0600600C30
0600600C30
C630E00C30
76E0C00C30
3FC0C01830
0F00C01830
0001801830
0001801830
0001801830
0003001836
0003000E3E
00030007FC
00060003F0
0006000030
0006000030
000C000030
000C000030
000C000030
001C000030
0018000030
ENDCHAR
STARTCHAR 00BD
ENCODING 189
SWIDTH 666 0
DWIDTH 48 0
BBX 41 47 4 1
BITMAP
060000300000
060000600000
060000600000
060000600000
060000C00000
060000C00000
060000C00000
060001800000
060001800000
060001800000
060003800000
060003000000
060003000000
060007000000
06000600F800
06000603FE00
060006070700
06000C0E0380
06000C0C0180
06000C0C0180
060018000180
060018000180
060018000180
060030000180
060030000180
060030000180
060070000380
060060000700
06006000FE00
C630E003F800
76E0C0070000
3FC0C00E0000
0F00C00C0000
0001800C0000
0001800C0000
0001800C0000
0003000C0000
0003000C0000
0003000C0000
0006000C0000
0006000C0000
0006000C0000
000C000C0000
000C000E0380
000C00070700
001C0003FE00
00180000F800
ENDCHAR
STARTCHAR 00BE
ENCODING 190
SWIDTH 666 0
DWIDTH 48 0
BBX 40 47 4 -1
BITMAP
0F00001800
3FC0003800
70E0003000
E070003000
C030007000
C030006000
0030006000
0030006000
003000C000
003000C000
003000C000
0030018000
0070018000
00E0018000
0380030060
03C00300E0
00E00300C0
00700600C0
00300600C0
00300601C0
00300E0180
00300C0180
00300C0180
00301C0318
0030180318
0030180318
0030180318
C030300618
C030300618
E070300618
70E0600618
3FC0600C18
0F00600C18
0000C00C18
0000C00C18
0000C00C18
0001C00C1B
000180071E
00018003FC
00038001F8
0003000018
0003000018
0003000018
0006000018
0006000018
0006000018
000C000018
ENDCHAR
STARTCHAR 00BF
ENCODING 191
SWIDTH 347 0
DWIDTH 25 0
BBX 17 47 4 -7
BITMAP
01C000
01C000
01C000
01C000
000000
000000
000000
000000
000000
000000
000000
000000
000000
01C000
01C000
01C000
01C000
01C000
01C000
01C000
01C000
01C000
01C000
01C000
01C000
03C000
0FC000
3FC000
7E0000
F80000
F00000
E00000
E00000
E00000
E00000
E00000
E00000
E00000
E00000
E00000
E00000
E00000
F00380
780700
3C1E00
1FF800
03E000
ENDCHAR
STARTCHAR 00C0
ENCODING 192
SWIDTH 347 0
DWIDTH 25 0
BBX 17 58 4 0
BITMAP
0E0000
070000
030000
018000
00C000
00E000
007000
003800
000000
000000
000000
03E000
0FF800
3C1C00
780E00
F00700
E00380
E00380
E00380
E00380
E00380
E00380
E00380
E00380
E00380
E00380
E00380
E00380
E00380
E00380
E00380
FFFF80
FFFF80
E00380
E00380
E00380
E00380
E00380
E00380
E00380
E00380
E00380
E00380
E00380
E00380
E00380
E00380
E00380
E00380
E00380
E00380
E00380
E00380
E00380
E00380
E00380
E00380
E00380
ENDCHAR
STARTCHAR 00C1
ENCODING 193
SWIDTH 347 0
DWIDTH 25 0
BBX 17 58 4 0
BITMAP
003800
007000
006000
00C000
01C000
038000
070000
0E0000
000000
000000
000000
03E000
0FF800
3C1C00
780E00
F00700
E00380
E00380
E00380
E00380
E00380
E00380
E00380
E00380
E00380
E00380
E00380
E00380
E00380
E00380
E00380
FFFF80
FFFF80
E00380
E00380
E00380
E00380
E00380
E00380
E00380
E00380
E00380
E00380
E00380
E00380
E00380
E00380
E00380
E00380
E00380
E00380
E00380
E00380
E00380
E00380
E00380
E00380
E00380
ENDCHAR
STARTCHAR 00C2
ENCODING 194
SWIDTH 347 0
DWIDTH 25 0
BBX 17 58 4 0
BITMAP
01C000
03C000
03E000
076000
067000
0E3000
0C1800
1C1800
000000
000000
000000
03E000
0FF800
3C1C00
700600
E00300
C00180
C00180
C00180
E00380
E00380
E00380
E00380
E00380
E00380
E00380
E00380
E00380
E00380
E00380
E00380
FFFF80
FFFF80
E00380
E00380
E00380
E00380
E00380
E00380
E00380
E00380
E00380
E00380
E00380
E00380
E00380
E00380
E00380
E00380
E00380
E00380
E00380
E00380
E00380
E00380
E00380
E00380
E00380
ENDCHAR
STARTCHAR 00C3
ENCODING 195
SWIDTH 347 0
DWIDTH 25 0
BBX 17 55 4 0
BITMAP
1F0200
7FC780
70FF00
203C00
000000
000000
000000
000000
03E000
0FF800
3C1C00
780E00
F00700
E00380
E00380
E00380
E00380
E00380
E00380
E00380
E00380
E00380
E00380
E00380
E00380
E00380
E00380
E00380
FFFF80
FFFF80
E00380
E00380
E00380
E00380
E00380
E00380
E00380
E00380
E00380
E00380
E00380
E00380
E00380
E00380
E00380
E00380
E00380
E00380
E00380
E00380
E00380
E00380
E00380
E00380
E00380
ENDCHAR
STARTCHAR 00C4
ENCODING 196
SWIDTH 347 0
DWIDTH 25 0
BBX 17 55 4 0
BITMAP
0E1C00
0E1C00
0E1C00
0E1C00
000000
000000
000000
000000
03E000
0FF800
3C1C00
780E00
F00700
E00380
E00380
E00380
E00380
E00380
E00380
E00380
E00380
E00380
E00380
E00380
E00380
E00380
E00380
E00380
FFFF80
FFFF80
E00380
E00380
E00380
E00380
E00380
E00380
E00380
E00380
E00380
E00380
E00380
E00380
E00380
E00380
E00380
E00380
E00380
E00380
E00380
E00380
E00380
E00380
E00380
E00380
E00380
ENDCHAR
STARTCHAR 00C5
ENCODING 197
SWIDTH 347 0
DWIDTH 25 0
BBX 17 57 4 0
BITMAP
03E000
07F000
0E3000
1C1800
381C00
381C00
381C00
381C00
3C1C00
1C3C00
1FF800
0FF800
3C1C00
780E00
F00700
E00380
E00380
E00380
E00380
E00380
E00380
E00380
E00380
E00380
E00380
E00380
E00380
E00380
E00380
E00380
FFFF80
FFFF80
E00380
E00380
E00380
E00380
E00380
E00380
E00380
E00380
E00380
E00380
E00380
E00380
E00380
E00380
E00380
E00380
E00380
E00380
E00380
E00380
E00380
E00380
E00380
E00380
E00380
ENDCHAR
STARTCHAR 00C6
ENCODING 198
SWIDTH 555 0
DWIDTH 40 0
BBX 31 47 4 0
BITMAP
03F00FC0
0FFC3FF0
3C1EF878
780FE01C
F007C00E
E0038006
E0038000
E0038000
E0038000
E0038000
E0038000
E0038000
E0038000
E0038000
E0038000
E0038000
E0038000
E0038000
E0038000
E0038000
FFFFFFE0
FFFFFFE0
E0038000
E0038000
E0038000
E0038000
E0038000
E0038000
E0038000
E0038000
E0038000
E0038000
E0038000
E0038000
E0038000
E0038000
E0038000
E0038000
E0038000
E0038000
E0038000
E0038004
E003C00E
E001E01C
E000F838
E0003FF0
E0000FC0
ENDCHAR
STARTCHAR 00C7
ENCODING 199
SWIDTH 347 0
DWIDTH 25 0
BBX 17 60 4 -13
BITMAP
03E000
0FF800
3C1C00
780F00
F00300
E00300
E00000
E00000
E00000
E00000
E00000
E00000
E00000
E00000
E00000
E00000
E00000
E00000
E00000
E00000
E00000
E00000
E00000
E00000
E00000
E00000
E00000
E00000
E00000
E00000
E00000
E00000
E00000
E00000
E00000
E00000
E00000
E00000
E00000
E00000
E00000
E00000
F00380
780700
3C1E00
0FF800
03E000
038000
03E000
00F000
003C00
001E00
000E00
000E00
000E00
001E00
003C00
00F800
03E000
038000
ENDCHAR
STARTCHAR 00C8
ENCODING 200
SWIDTH 347 0
DWIDTH 25 0
BBX 17 58 4 0
BITMAP
0E0000
070000
030000
018000
00C000
00E000
007000
003800
000000
000000
000000
03E000
0FF800
3C1E00
780700
F00300
E00300
E00000
E00000
E00000
E00000
E00000
E00000
E00000
E00000
E00000
E00000
E00000
E00000
E00000
E00000
FFF800
FFF800
E00000
E00000
E00000
E00000
E00000
E00000
E00000
E00000
E00000
E00000
E00000
E00000
E00000
E00000
E00000
E00000
E00000
E00000
E00000
E00300
F00380
780700
3C1E00
0FF800
03E000
ENDCHAR
STARTCHAR 00C9
ENCODING 201
SWIDTH 347 0
DWIDTH 25 0
BBX 17 58 4 0
BITMAP
003800
007000
006000
00C000
01C000
038000
070000
0E0000
000000
000000
000000
03E000
0FF800
3C1E00
780700
F00300
E00300
E00000
E00000
E00000
E00000
E00000
E00000
E00000
E00000
E00000
E00000
E00000
E00000
E00000
E00000
FFF800
FFF800
E00000
E00000
E00000
E00000
E00000
E00000
E00000
E00000
E00000
E00000
E00000
E00000
E00000
E00000
E00000
E00000
E00000
E00000
E00000
E00300
F00380
780700
3C1E00
0FF800
03E000
ENDCHAR
STARTCHAR 00CA
ENCODING 202
SWIDTH 347 0
DWIDTH 25 0
BBX 17 58 4 0
BITMAP
01C000
01E000
03E000
03B000
073000
0E1800
0E0C00
1C0C00
000000
000000
000000
03E000
0FF800
3C1E00
700F00
E00700
C00300
C00000
C00000
E00000
E00000
E00000
E00000
E00000
E00000
E00000
E00000
E00000
E00000
E00000
E00000
FFF800
FFF800
E00000
E00000
E00000
E00000
E00000
E00000
E00000
E00000
E00000
E00000
E00000
E00000
E00000
E00000
E00000
E00000
E00000
C00000
C00000
C00300
E00380
700F00
3C1E00
0FF800
03E000
ENDCHAR
STARTCHAR 00CB
ENCODING 203
SWIDTH 347 0
DWIDTH 25 0
BBX 17 55 4 0
BITMAP
0E1C00
0E1C00
0E1C00
0E1C00
000000
000000
000000
000000
03E000
0FF800
3C1E00
780700
F00300
E00300
E00000
E00000
E00000
E00000
E00000
E00000
E00000
E00000
E00000
E00000
E00000
E00000
E00000
E00000
FFF800
FFF800
E00000
E00000
E00000
E00000
E00000
E00000
E00000
E00000
E00000
E00000
E00000
E00000
E00000
E00000
E00000
E00000
E00000
E00000
E00000
E00300
F00380
780700
3C1E00
0FF800
03E000
ENDCHAR
STARTCHAR 00CC
ENCODING 204
SWIDTH 236 0
DWIDTH 17 0
BBX 9 58 4 0
BITMAP
E000
7000
3000
1800
0C00
0E00
0700
0380
0000
0000
0000
1C00
1C00
1C00
1C00
1C00
1C00
1C00
1C00
1C00
1C00
1C00
1C00
1C00
1C00
1C00
1C00
1C00
1C00
1C00
1C00
1C00
1C00
1C00
1C00
1C00
1C00
1C00
1C00
1C00
1C00
1C00
1C00
1C00
1C00
1C00
1C00
1C00
1C00
1C00
1C00
1C00
1C00
1C00
1C00
1C00
1C00
1C00
ENDCHAR
STARTCHAR 00CD
ENCODING 205
SWIDTH 236 0
DWIDTH 17 0
BBX 9 58 4 0
BITMAP
0380
0700
0600
0C00
1C00
3800
7000
E000
0000
0000
0000
1C00
1C00
1C00
1C00
1C00
1C00
1C00
1C00
1C00
1C00
1C00
1C00
1C00
1C00
1C00
1C00
1C00
1C00
1C00
1C00
1C00
1C00
1C00
1C00
1C00
1C00
1C00
1C00
1C00
1C00
1C00
1C00
1C00
1C00
1C00
1C00
1C00
1C00
1C00
1C00
1C00
1C00
1C00
1C00
1C00
1C00
1C00
ENDCHAR
STARTCHAR 00CE
ENCODING 206
SWIDTH 277 0
DWIDTH 20 0
BBX 12 58 4 0
BITMAP
0700
0F80
1F80
1FC0
39C0
70E0
70E0
E070
0000
0000
0000
0700
0700
0700
0700
0700
0700
0700
0700
0700
0700
0700
0700
0700
0700
0700
0700
0700
0700
0700
0700
0700
0700
0700
0700
0700
0700
0700
0700
0700
0700
0700
0700
0700
0700
0700
0700
0700
0700
0700
0700
0700
0700
0700
0700
0700
0700
0700
ENDCHAR
STARTCHAR 00CF
ENCODING 207
SWIDTH 250 0
DWIDTH 18 0
BBX 10 55 4 0
BITMAP
E1C0
E1C0
E1C0
E1C0
0000
0000
0000
0000
0E00
0E00
0E00
0E00
0E00
0E00
0E00
0E00
0E00
0E00
0E00
0E00
0E00
0E00
0E00
0E00
0E00
0E00
0E00
0E00
0E00
0E00
0E00
0E00
0E00
0E00
0E00
0E00
0E00
0E00
0E00
0E00
0E00
0E00
0E00
0E00
0E00
0E00
0E00
0E00
0E00
0E00
0E00
0E00
0E00
0E00
0E00
ENDCHAR
STARTCHAR 00D0
ENCODING 208
SWIDTH 375 0
DWIDTH 27 0
BBX 20 47 4 0
BITMAP
1FFC00
1FFF00
1C0780
1C01C0
1C00E0
1C0070
1C0070
1C0070
1C0070
1C0070
1C0070
1C0070
1C0070
1C0070
1C0070
1C0070
1C0070
1C0070
1C0070
1C0070
FFF870
FFF870
1C0070
1C0070
1C0070
1C0070
1C0070
1C0070
1C0070
1C0070
1C0070
1C0070
1C0070
1C0070
1C0070
1C0070
1C0070
1C0070
1C0070
1C0070
1C0070
1C0070
1C00F0
1C01E0
1C03C0
1FFF00
1FFC00
ENDCHAR
STARTCHAR 00D1
ENCODING 209
SWIDTH 347 0
DWIDTH 25 0
BBX 17 55 4 0
BITMAP
1F0200
7FC780
70FF00
203C00
000000
000000
000000
000000
03E000
0FF800
3C1C00
780E00
F00700
E00380
E00380
E00380
E00380
E00380
E00380
E00380
E00380
E00380
E00380
E00380
E00380
E00380
E00380
E00380
E00380
E00380
E00380
E00380
E00380
E00380
E00380
E00380
E00380
E00380
E00380
E00380
E00380
E00380
E00380
E00380
E00380
E00380
E00380
E00380
E00380
E00380
E00380
E00380
E00380
E00380
E00380
ENDCHAR
STARTCHAR 00D2
ENCODING 210
SWIDTH 347 0
DWIDTH 25 0
BBX 17 58 4 0
BITMAP
0E0000
070000
030000
018000
00C000
00E000
007000
003800
000000
000000
000000
03E000
0FF800
3C1C00
780E00
F00700
E00380
E00380
E00380
E00380
E00380
E00380
E00380
E00380
E00380
E00380
E00380
E00380
E00380
E00380
E00380
E00380
E00380
E00380
E00380
E00380
E00380
E00380
E00380
E00380
E00380
E00380
E00380
E00380
E00380
E00380
E00380
E00380
E00380
E00380
E00380
E00380
E00380
F00780
780F00
3C1E00
0FF800
03E000
ENDCHAR
STARTCHAR 00D3
ENCODING 211
SWIDTH 347 0
DWIDTH 25 0
BBX 17 58 4 0
BITMAP
003800
007000
006000
00C000
01C000
038000
070000
0E0000
000000
000000
000000
03E000
0FF800
3C1C00
780E00
F00700
E00380
E00380
E00380
E00380
E00380
E00380
E00380
E00380
E00380
E00380
E00380
E00380
E00380
E00380
E00380
E00380
E00380
E00380
E00380
E00380
E00380
E00380
E00380
E00380
E00380
E00380
E00380
E00380
E00380
E00380
E00380
E00380
E00380
E00380
E00380
E00380
E00380
F00780
780F00
3C1E00
0FF800
03E000
ENDCHAR
STARTCHAR 00D4
ENCODING 212
SWIDTH 347 0
DWIDTH 25 0
BBX 17 58 4 0
BITMAP
01C000
03C000
03E000
076000
067000
0E3000
0C1800
1C1800
000000
000000
000000
03E000
0FF800
3C1C00
700600
E00300
C00180
C00180
C00180
C00180
C00180
C00180
C00180
C00180
C00180
C00180
C00180
C00180
C00180
C00180
C00180
C00180
C00180
C00180
C00180
C00180
C00180
C00180
C00180
C00180
C00180
C00180
C00180
C00180
C00180
C00180
C00180
C00180
C00180
C00180
C00180
C00180
C00180
E00380
700700
3C1E00
0FF800
03E000
ENDCHAR
STARTCHAR 00D5
ENCODING 213
SWIDTH 347 0
DWIDTH 25 0
BBX 17 55 4 0
BITMAP
1F0200
7FC780
70FF00
203C00
000000
000000
000000
000000
03E000
0FF800
3C1C00
780E00
F00700
E00380
E00380
E00380
E00380
E00380
E00380
E00380
E00380
E00380
E00380
E00380
E00380
E00380
E00380
E00380
E00380
E00380
E00380
E00380
E00380
E00380
E00380
E00380
E00380
E00380
E00380
E00380
E00380
E00380
E00380
E00380
E00380
E00380
E00380
E00380
E00380
E00380
F00780
780F00
3C1E00
0FF800
03E000
ENDCHAR
STARTCHAR 00D6
ENCODING 214
SWIDTH 347 0
DWIDTH 25 0
BBX 17 55 4 0
BITMAP
0E1C00
0E1C00
0E1C00
0E1C00
000000
000000
000000
000000
03E000
0FF800
3C1C00
780E00
F00700
E00380
E00380
E00380
E00380
E00380
E00380
E00380
E00380
E00380
E00380
E00380
E00380
E00380
E00380
E00380
E00380
E00380
E00380
E00380
E00380
E00380
E00380
E00380
E00380
E00380
E00380
E00380
E00380
E00380
E00380
E00380
E00380
E00380
E00380
E00380
E00380
E00380
F00780
780F00
3C1E00
0FF800
03E000
ENDCHAR
STARTCHAR 00D7
ENCODING 215
SWIDTH 347 0
DWIDTH 25 0
BBX 53 53 5 -24
BITMAP
00030000000000
40070000000000
200F8000000000
101FC000000000
083FC000000000
047F2000000000
06FE3000000000
03F83800000000
03E07800000000
07807C00000000
0F007E00000000
1C007E00000000
3000FF00000000
4000FF80000000
8000FFC0000000
0000FFC0000000
00037FE0000000
00023FF0000000
00021FF0000000
00000FF8000000
000007FC000000
000003FE000000
000001FE000000
000000FF000000
0000007F800000
0000003F800000
0000001FC00000
0000000FE00000
00000007F00000
00000003F00000
00000001F80000
00000000FC0000
000000007C0000
000000003E0000
000000001F0000
000000000F8000
00000000078000
0000000003C000
0000000001E000
0000000000E000
00000000007000
00000000003800
00000000001C00
00000000000C00
00000000000600
00000000000300
00000000000100
00000000000080
00000000000040
00000000000020
00000000000020
00000000000010
00000000000008
ENDCHAR
STARTCHAR 00D8
ENCODING 216
SWIDTH 347 0
DWIDTH 25 0
BBX 17 52 4 -3
BITMAP
000100
000300
03E200
0FFA00
3C1E00
780E00
E00700
C00780
C00780
C00D80
C00D80
C00D80
C01D80
C01980
C01980
C01980
C03980
C03180
C03180
C03180
C06180
C06180
C06180
C06180
C0C180
C0C180
C0C180
C1C180
C18180
C18180
C18180
C30180
C30180
C30180
C30180
C60180
C60180
C60180
CE0180
CC0180
CC0180
CC0180
D80180
D80180
D80380
580700
3E1E00
3FF800
33F000
700000
600000
600000
ENDCHAR
STARTCHAR 00D9
ENCODING 217
SWIDTH 347 0
DWIDTH 25 0
BBX 17 58 4 0
BITMAP
0E0000
070000
030000
018000
00C000
00E000
007000
003800
000000
000000
000000
E00380
E00380
E00380
E00380
E00380
E00380
E00380
E00380
E00380
E00380
E00380
E00380
E00380
E00380
E00380
E00380
E00380
E00380
E00380
E00380
E00380
E00380
E00380
E00380
E00380
E00380
E00380
E00380
E00380
E00380
E00380
E00380
E00380
E00380
E00380
E00380
E00380
E00380
E00380
E00380
E00380
E00380
F00780
780F00
3C1E00
0FF800
03E000
ENDCHAR
STARTCHAR 00DA
ENCODING 218
SWIDTH 347 0
DWIDTH 25 0
BBX 17 58 4 0
BITMAP
003800
007000
006000
00C000
01C000
038000
070000
0E0000
000000
000000
000000
E00380
E00380
E00380
E00380
E00380
E00380
E00380
E00380
E00380
E00380
E00380
E00380
E00380
E00380
E00380
E00380
E00380
E00380
E00380
E00380
E00380
E00380
E00380
E00380
E00380
E00380
E00380
E00380
E00380
E00380
E00380
E00380
E00380
E00380
E00380
E00380
E00380
E00380
E00380
E00380
E00380
E00380
F00780
780F00
3C1E00
0FF800
03E000
ENDCHAR
STARTCHAR 00DB
ENCODING 219
SWIDTH 347 0
DWIDTH 25 0
BBX 17 58 4 0
BITMAP
01C000
03C000
03E000
076000
067000
0E3000
0C1800
1C1800
000000
000000
000000
E00380
E00380
E00380
E00380
E00380
E00380
E00380
E00380
E00380
E00380
E00380
E00380
E00380
E00380
E00380
E00380
E00380
E00380
E00380
E00380
E00380
E00380
E00380
E00380
E00380
E00380
E00380
E00380
E00380
E00380
E00380
E00380
E00380
E00380
E00180
C00180
C00180
C00180
C00180
C00180
C00180
C00180
E00380
700700
3C1E00
0FF800
03E000
ENDCHAR
STARTCHAR 00DC
ENCODING 220
SWIDTH 347 0
DWIDTH 25 0
BBX 17 55 4 0
BITMAP
0E1C00
0E1C00
0E1C00
0E1C00
000000
000000
000000
000000
E00380
E00380
E00380
E00380
E00380
E00380
E00380
E00380
E00380
E00380
E00380
E00380
E00380
E00380
E00380
E00380
E00380
E00380
E00380
E00380
E00380
E00380
E00380
E00380
E00380
E00380
E00380
E00380
E00380
E00380
E00380
E00380
E00380
E00380
E00380
E00380
E00380
E00380
E00380
E00380
E00380
E00380
F00780
780F00
3C1E00
0FF800
03E000
ENDCHAR
STARTCHAR 00DD
ENCODING 221
SWIDTH 347 0
DWIDTH 25 0
BBX 17 58 4 0
BITMAP
003800
007000
006000
00C000
01C000
038000
070000
0E0000
000000
000000
000000
E00380
E00380
E00380
E00380
E00380
E00380
E00380
E00380
E00380
E00380
E00380
E00380
E00380
E00380
E00380
E00380
E00380
F00780
780F00
3C3E00
1FFC00
0FF000
01C000
01C000
01C000
01C000
01C000
01C000
01C000
01C000
01C000
01C000
01C000
01C000
01C000
01C000
01C000
01C000
01C000
01C000
01C000
01C000
01C000
01C000
01C000
01C000
01C000
ENDCHAR
STARTCHAR 00DE
ENCODING 222
SWIDTH 347 0
DWIDTH 25 0
BBX 17 47 4 0
BITMAP
E00000
E00000
E00000
E00000
E00000
E00000
E00000
E00000
E00000
E00000
E00000
E00000
FFE000
FFF800
E01E00
E00F00
E00780
E00380
E00380
E00380
E00380
E00380
E00380
E00380
E00380
E00380
E00380
E00380
E00380
E00380
E00380
E00780
E00F00
E01E00
FFFC00
FFF000
E00000
E00000
E00000
E00000
E00000
E00000
E00000
E00000
E00000
E00000
E00000
ENDCHAR
STARTCHAR 00DF
ENCODING 223
SWIDTH 375 0
DWIDTH 27 0
BBX 19 53 4 -6
BITMAP
03E000
0FF800
3C1C00
780E00
700700
E00380
E00380
E00380
E00380
E00380
E00380
E00380
E00380
E00380
E00380
E00780
E00F00
E01E00
E1FC00
E3F000
E38000
E38000
E38000
E3FC00
E0FF00
E00F80
E003C0
E001E0
E000E0
E000E0
E000E0
E000E0
E000E0
E000E0
E000E0
E000E0
E000E0
E000E0
E000E0
E000E0
E000E0
E000E0
E000E0
E000E0
E000E0
E000E0
E000E0
0000E0
0001C0
000380
000F00
003E00
003800
ENDCHAR
STARTCHAR 00E0
ENCODING 224
SWIDTH 347 0
DWIDTH 25 0
BBX 17 43 4 0
BITMAP
0E0000
070000
038000
01C000
00C000
006000
003000
003800
000000
000000
000000
03E000
0FF800
3C3E00
700F00
E00780
400380
000380
000380
000380
000380
000380
000380
000380
07E380
1FFB80
3C1F80
700F80
E00780
E00380
E00380
E00380
E00380
E00380
E00380
E00380
E00380
E00380
F00780
780F80
3F7F80
1FFB80
07E380
ENDCHAR
STARTCHAR 00E1
ENCODING 225
SWIDTH 347 0
DWIDTH 25 0
BBX 17 43 4 0
BITMAP
003800
007000
00E000
00C000
018000
030000
070000
0E0000
000000
000000
000000
03E000
0FF800
3C3E00
700F00
E00780
400380
000380
000380
000380
000380
000380
000380
000380
07E380
1FFB80
3C1F80
700F80
E00780
E00380
E00380
E00380
E00380
E00380
E00380
E00380
E00380
E00380
F00780
780F80
3F7F80
1FFB80
07E380
ENDCHAR
STARTCHAR 00E2
ENCODING 226
SWIDTH 347 0
DWIDTH 25 0
BBX 17 43 4 0
BITMAP
01C000
03C000
036000
076000
063000
0C3800
1C1800
180C00
000000
000000
000000
03E000
0FF800
3C1E00
780700
E00380
200180
000180
000380
000380
000380
000380
000380
000380
07E380
1FFB80
3C1F80
700780
E00380
C00180
C00180
C00180
C00180
C00180
C00180
C00180
C00180
E00380
F00780
780F80
3F7F80
1FFB80
07E380
ENDCHAR
STARTCHAR 00E3
ENCODING 227
SWIDTH 347 0
DWIDTH 25 0
BBX 17 41 4 0
BITMAP
0F0000
3FC700
F1FF00
207C00
000000
000000
000000
000000
000000
03E000
0FF800
3C3E00
700F00
E00780
400380
000380
000380
000380
000380
000380
000380
000380
07E380
1FFB80
3C1F80
700F80
E00780
E00380
E00380
E00380
E00380
E00380
E00380
E00380
E00380
E00380
F00780
780F80
3F7F80
1FFB80
07E380
ENDCHAR
STARTCHAR 00E4
ENCODING 228
SWIDTH 347 0
DWIDTH 25 0
BBX 17 41 4 0
BITMAP
0E1C00
0E1C00
0E1C00
0E1C00
000000
000000
000000
000000
000000
03E000
0FF800
3C3E00
700F00
E00780
400380
000380
000380
000380
000380
000380
000380
000380
07E380
1FFB80
3C1F80
700F80
E00780
E00380
E00380
E00380
E00380
E00380
E00380
E00380
E00380
E00380
F00780
780F80
3F7F80
1FFB80
07E380
ENDCHAR
STARTCHAR 00E5
ENCODING 229
SWIDTH 347 0
DWIDTH 25 0
BBX 18 43 4 0
BITMAP
01E000
07F800
0E3C00
1E1E00
1C0E00
1C0E00
1E1C00
0F3C00
07F800
01E000
000000
03F000
0FFC00
3C1E00
780780
F00380
2001C0
0001C0
0001C0
0001C0
0001C0
0001C0
0001C0
0001C0
03F1C0
1FFDC0
3C0FC0
7007C0
E003C0
E001C0
E001C0
E001C0
E001C0
E001C0
E001C0
E001C0
E001C0
E001C0
F003C0
780FC0
3F7FC0
0FFDC0
03F1C0
ENDCHAR
STARTCHAR 00E6
ENCODING 230
SWIDTH 555 0
DWIDTH 40 0
BBX 32 32 4 0
BITMAP
03E00FC0
0FF83FF0
3C3E787C
700FE01E
E007C00F
00038007
00038007
00038007
00038007
00038007
00038007
00038007
03E38007
0FFB8007
1FFF8007
3C1FC00E
700FE01C
E007F878
E003BFF0
E0038FC0
E0038000
E0038000
E0038000
E0038000
E0038000
E0038000
E0038004
F007800F
780FE01E
3C1E783C
0FF83FF0
03E00FC0
ENDCHAR
STARTCHAR 00E7
ENCODING 231
SWIDTH 347 0
DWIDTH 25 0
BBX 17 45 4 -13
BITMAP
03E000
0FF800
3C1E00
780700
F00380
E00100
E00000
E00000
E00000
E00000
E00000
E00000
E00000
E00000
E00000
E00000
E00000
E00000
E00000
E00000
E00000
E00000
E00000
E00000
E00000
E00000
E00000
F00380
780700
3C1E00
0FF800
03E000
038000
03E000
00F000
003C00
001E00
000E00
000E00
000E00
001E00
003C00
00F800
03E000
038000
ENDCHAR
STARTCHAR 00E8
ENCODING 232
SWIDTH 347 0
DWIDTH 25 0
BBX 17 43 4 0
BITMAP
0E0000
070000
038000
01C000
00C000
006000
003000
003800
000000
000000
000000
03E000
0FF800
3C1E00
780F00
F00780
E00380
E00380
E00380
E00380
E00380
E00380
E00380
E00380
E00380
E00780
F00F00
FC1F00
FFFE00
EFF800
E3E000
E00000
E00000
E00000
E00000
E00000
E00000
E00200
E00780
780F00
3C1E00
1FF800
03E000
ENDCHAR
STARTCHAR 00E9
ENCODING 233
SWIDTH 347 0
DWIDTH 25 0
BBX 17 43 4 0
BITMAP
003800
007000
00E000
00C000
018000
030000
070000
0E0000
000000
000000
000000
03E000
0FF800
3C1E00
780F00
F00780
E00380
E00380
E00380
E00380
E00380
E00380
E00380
E00380
E00380
E00780
F00F00
FC1F00
FFFE00
EFF800
E3E000
E00000
E00000
E00000
E00000
E00000
E00000
E00200
E00780
780F00
3C1E00
1FF800
03E000
ENDCHAR
STARTCHAR 00EA
ENCODING 234
SWIDTH 347 0
DWIDTH 25 0
BBX 17 43 4 0
BITMAP
01C000
03C000
036000
076000
063000
0C3800
1C1800
180C00
000000
000000
000000
03E000
0FF800
3C1E00
700700
E00380
C00180
C00180
C00180
C00180
C00180
C00180
C00180
C00180
C00180
E00380
F00700
FC1F00
FFFE00
EFF800
E3E000
E00000
E00000
E00000
E00000
E00000
E00000
C00200
E00780
700F00
3C1E00
1FF800
03E000
ENDCHAR
STARTCHAR 00EB
ENCODING 235
SWIDTH 347 0
DWIDTH 25 0
BBX 17 41 4 0
BITMAP
0E1C00
0E1C00
0E1C00
0E1C00
000000
000000
000000
000000
000000
03E000
0FF800
3C1E00
780F00
F00780
E00380
E00380
E00380
E00380
E00380
E00380
E00380
E00380
E00380
E00780
F00F00
FC1F00
FFFE00
EFF800
E3E000
E00000
E00000
E00000
E00000
E00000
E00000
E00200
E00780
780F00
3C1E00
1FF800
03E000
ENDCHAR
STARTCHAR 00EC
ENCODING 236
SWIDTH 236 0
DWIDTH 17 0
BBX 9 43 4 0
BITMAP
E000
7000
3800
1C00
0C00
0600
0300
0380
0000
0000
0000
1C00
1C00
1C00
1C00
1C00
1C00
1C00
1C00
1C00
1C00
1C00
1C00
1C00
1C00
1C00
1C00
1C00
1C00
1C00
1C00
1C00
1C00
1C00
1C00
1C00
1C00
1C00
1C00
1C00
1C00
1C00
1C00
ENDCHAR
STARTCHAR 00ED
ENCODING 237
SWIDTH 236 0
DWIDTH 17 0
BBX 9 43 4 0
BITMAP
0380
0700
0E00
0C00
1800
3000
7000
E000
0000
0000
0000
1C00
1C00
1C00
1C00
1C00
1C00
1C00
1C00
1C00
1C00
1C00
1C00
1C00
1C00
1C00
1C00
1C00
1C00
1C00
1C00
1C00
1C00
1C00
1C00
1C00
1C00
1C00
1C00
1C00
1C00
1C00
1C00
ENDCHAR
STARTCHAR 00EE
ENCODING 238
SWIDTH 277 0
DWIDTH 20 0
BBX 12 43 4 0
BITMAP
0700
0F80
1F80
19C0
30C0
70E0
6070
C030
0000
0000
0000
0700
0700
0700
0700
0700
0700
0700
0700
0700
0700
0700
0700
0700
0700
0700
0700
0700
0700
0700
0700
0700
0700
0700
0700
0700
0700
0700
0700
0700
0700
0700
0700
ENDCHAR
STARTCHAR 00EF
ENCODING 239
SWIDTH 250 0
DWIDTH 18 0
BBX 10 41 4 0
BITMAP
E1C0
E1C0
E1C0
E1C0
0000
0000
0000
0000
0000
0E00
0E00
0E00
0E00
0E00
0E00
0E00
0E00
0E00
0E00
0E00
0E00
0E00
0E00
0E00
0E00
0E00
0E00
0E00
0E00
0E00
0E00
0E00
0E00
0E00
0E00
0E00
0E00
0E00
0E00
0E00
0E00
ENDCHAR
STARTCHAR 00F0
ENCODING 240
SWIDTH 375 0
DWIDTH 27 0
BBX 20 47 4 0
BITMAP
006000
007800
001E10
000F60
0003E0
000780
001F80
007B80
01E380
078380
0F0380
0C0380
000380
000380
000380
07E380
1FFB80
3FFF80
781F80
F00780
E00380
E00380
E00380
E00380
E00380
E00380
E00380
E00380
E00380
E00380
E00380
E00380
E00380
E00380
E00380
E00380
E00380
E00380
E00380
E00380
E00380
E00380
F00700
780F00
3C1E00
1FF800
03E000
ENDCHAR
STARTCHAR 00F1
ENCODING 241
SWIDTH 347 0
DWIDTH 25 0
BBX 17 41 4 0
BITMAP
0F0000
3FC700
F1FF00
207C00
000000
000000
000000
000000
000000
E3E000
EFF800
FC1E00
F80F00
F00780
E00380
E00380
E00380
E00380
E00380
E00380
E00380
E00380
E00380
E00380
E00380
E00380
E00380
E00380
E00380
E00380
E00380
E00380
E00380
E00380
E00380
E00380
E00380
E00380
E00380
E00380
E00380
ENDCHAR
STARTCHAR 00F2
ENCODING 242
SWIDTH 347 0
DWIDTH 25 0
BBX 17 43 4 0
BITMAP
0E0000
070000
038000
01C000
00C000
006000
003000
003800
000000
000000
000000
03E000
0FF800
3C1E00
780F00
F00780
E00380
E00380
E00380
E00380
E00380
E00380
E00380
E00380
E00380
E00380
E00380
E00380
E00380
E00380
E00380
E00380
E00380
E00380
E00380
E00380
E00380
E00380
F00780
780F00
3C1E00
1FF800
03E000
ENDCHAR
STARTCHAR 00F3
ENCODING 243
SWIDTH 347 0
DWIDTH 25 0
BBX 17 43 4 0
BITMAP
003800
007000
00E000
00C000
018000
030000
070000
0E0000
000000
000000
000000
03E000
0FF800
3C1E00
780F00
F00780
E00380
E00380
E00380
E00380
E00380
E00380
E00380
E00380
E00380
E00380
E00380
E00380
E00380
E00380
E00380
E00380
E00380
E00380
E00380
E00380
E00380
E00380
F00780
780F00
3C1E00
1FF800
03E000
ENDCHAR
STARTCHAR 00F4
ENCODING 244
SWIDTH 347 0
DWIDTH 25 0
BBX 17 43 4 0
BITMAP
01C000
03C000
036000
076000
063000
0C3800
1C1800
180C00
000000
000000
000000
03E000
0FF800
3C1E00
700700
E00380
C00180
C00180
C00180
C00180
C00180
C00180
C00180
C00180
C00180
C00180
C00180
C00180
C00180
C00180
C00180
C00180
C00180
C00180
C00180
C00180
C00180
C00180
E00380
700700
3C1E00
1FF800
03E000
ENDCHAR
STARTCHAR 00F5
ENCODING 245
SWIDTH 347 0
DWIDTH 25 0
BBX 17 41 4 0
BITMAP
0F0000
3FC700
F1FF00
207C00
000000
000000
000000
000000
000000
03E000
0FF800
3C1E00
780F00
F00780
E00380
E00380
E00380
E00380
E00380
E00380
E00380
E00380
E00380
E00380
E00380
E00380
E00380
E00380
E00380
E00380
E00380
E00380
E00380
E00380
E00380
E00380
F00780
780F00
3C1E00
1FF800
03E000
ENDCHAR
STARTCHAR 00F6
ENCODING 246
SWIDTH 347 0
DWIDTH 25 0
BBX 17 41 4 0
BITMAP
0E1C00
0E1C00
0E1C00
0E1C00
000000
000000
000000
000000
000000
03E000
0FF800
3C1E00
780F00
F00780
E00380
E00380
E00380
E00380
E00380
E00380
E00380
E00380
E00380
E00380
E00380
E00380
E00380
E00380
E00380
E00380
E00380
E00380
E00380
E00380
E00380
E00380
F00780
780F00
3C1E00
1FF800
03E000
ENDCHAR
STARTCHAR 00F7
ENCODING 247
SWIDTH 416 0
DWIDTH 30 0
BBX 23 21 4 10
BITMAP
003800
003800
003800
003800
000000
000000
000000
000000
000000
FFFFFE
FFFFFE
000000
000000
000000
000000
000000
000000
003800
003800
003800
003800
ENDCHAR
STARTCHAR 00F8
ENCODING 248
SWIDTH 347 0
DWIDTH 25 0
BBX 17 37 4 -3
BITMAP
000300
000600
03E600
0FFE00
3E1E00
780F00
F01F80
E01380
E01380
E03380
E02380
E02380
E06380
E06380
E04380
E0C380
E0C380
E08380
E18380
E18380
E30380
E30380
E30380
E60380
E60380
E60380
EE0380
EC0380
EC0380
FC0780
780F00
3C3E00
1FF800
33E000
300000
300000
600000
ENDCHAR
STARTCHAR 00F9
ENCODING 249
SWIDTH 347 0
DWIDTH 25 0
BBX 17 43 4 0
BITMAP
0E0000
070000
038000
01C000
00C000
006000
003000
003800
000000
000000
000000
E00380
E00380
E00380
E00380
E00380
E00380
E00380
E00380
E00380
E00380
E00380
E00380
E00380
E00380
E00380
E00380
E00380
E00380
E00380
E00380
E00380
E00380
E00380
E00380
E00380
E00380
E00380
F00780
780F80
3FFF80
1FFB80
07E380
ENDCHAR
STARTCHAR 00FA
ENCODING 250
SWIDTH 347 0
DWIDTH 25 0
BBX 17 43 4 0
BITMAP
003800
007000
00E000
00C000
018000
030000
070000
0E0000
000000
000000
000000
E00380
E00380
E00380
E00380
E00380
E00380
E00380
E00380
E00380
E00380
E00380
E00380
E00380
E00380
E00380
E00380
E00380
E00380
E00380
E00380
E00380
E00380
E00380
E00380
E00380
E00380
E00380
F00780
780F80
3FFF80
1FFB80
07E380
ENDCHAR
STARTCHAR 00FB
ENCODING 251
SWIDTH 347 0
DWIDTH 25 0
BBX 17 43 4 0
BITMAP
01C000
03C000
036000
076000
063000
0C3800
1C1800
180C00
000000
000000
000000
E00380
E00380
E00380
E00380
E00380
E00380
E00380
E00380
E00380
E00380
E00380
E00380
E00380
E00380
E00380
E00380
E00380
E00380
E00380
E00380
E00380
E00180
E00180
C00180
C00180
C00180
E00380
F00780
780F80
3FFF80
1FFB80
07E380
ENDCHAR
STARTCHAR 00FC
ENCODING 252
SWIDTH 347 0
DWIDTH 25 0
BBX 17 41 4 0
BITMAP
0E1C00
0E1C00
0E1C00
0E1C00
000000
000000
000000
000000
000000
E00380
E00380
E00380
E00380
E00380
E00380
E00380
E00380
E00380
E00380
E00380
E00380
E00380
E00380
E00380
E00380
E00380
E00380
E00380
E00380
E00380
E00380
E00380
E00380
E00380
E00380
E00380
F00780
780F80
3FFF80
1FFB80
07E380
ENDCHAR
STARTCHAR 00FD
ENCODING 253
SWIDTH 347 0
DWIDTH 25 0
BBX 17 58 4 -15
BITMAP
003800
007000
00E000
00C000
018000
030000
070000
0E0000
000000
000000
000000
E00380
E00380
E00380
E00380
E00380
E00380
E00380
E00380
E00380
E00380
E00380
E00380
E00380
E00380
E00380
E00380
E00380
E00380
E00380
E00380
E00380
E00380
E00380
E00380
E00380
E00380
E00380
F00780
780F80
3FFF80
1FFB80
07E380
000380
000380
000380
000380
000380
000380
000380
000380
000380
000380
000700
000F00
001C00
007800
006000
ENDCHAR
STARTCHAR 00FE
ENCODING 254
SWIDTH 347 0
DWIDTH 25 0
BBX 17 62 4 -15
BITMAP
E00000
E00000
E00000
E00000
E00000
E00000
E00000
E00000
E00000
E00000
E00000
E00000
E00000
E00000
E00000
E3E000
EFF800
FFFE00
F80F00
F00780
E00380
E00380
E00380
E00380
E00380
E00380
E00380
E00380
E00380
E00380
E00380
E00380
E00380
E00380
E00380
E00380
E00380
E00380
E00380
E00380
E00380
E00380
F00780
F81F00
FFFE00
EFF800
E3E000
E00000
E00000
E00000
E00000
E00000
E00000
E00000
E00000
E00000
E00000
E00000
E00000
E00000
E00000
E00000
ENDCHAR
STARTCHAR 00FF
ENCODING 255
SWIDTH 347 0
DWIDTH 25 0
BBX 17 56 4 -15
BITMAP
0E1C00
0E1C00
0E1C00
0E1C00
000000
000000
000000
000000
000000
E00380
E00380
E00380
E00380
E00380
E00380
E00380
E00380
E00380
E00380
E00380
E00380
E00380
E00380
E00380
E00380
E00380
E00380
E00380
E00380
E00380
E00380
E00380
E00380
E00380
E00380
E00380
F00780
780F80
3FFF80
1FFB80
07E380
000380
000380
000380
000380
000380
000380
000380
000380
000380
000380
000700
000F00
001C00
007800
006000
ENDCHAR
STARTCHAR 0101
ENCODING 257
SWIDTH 347 0
DWIDTH 25 0
BBX 0 0 0 0
BITMAP
ENDCHAR
STARTCHAR 0152
ENCODING 338
SWIDTH 555 0
DWIDTH 40 0
BBX 31 47 4 0
BITMAP
03F00FC0
0FFC3FF0
3C1EF878
780FE01C
F007C00E
E0038006
E0038000
E0038000
E0038000
E0038000
E0038000
E0038000
E0038000
E0038000
E0038000
E0038000
E0038000
E0038000
E0038000
E0038000
E003FFE0
E003FFE0
E0038000
E0038000
E0038000
E0038000
E0038000
E0038000
E0038000
E0038000
E0038000
E0038000
E0038000
E0038000
E0038000
E0038000
E0038000
E0038000
E0038000
E0038000
E0038000
E0038004
F007C00E
780EE01E
3C1C7838
0FF81FF0
03E007C0
ENDCHAR
STARTCHAR 0153
ENCODING 339
SWIDTH 555 0
DWIDTH 40 0
BBX 32 32 4 0
BITMAP
03E00FC0
0FF83FF0
3C1E7878
780FE01E
F007C00E
E0038007
E0038007
E0038007
E0038007
E0038007
E0038007
E0038007
E0038007
E0038007
E003800F
E003C01E
E003F03C
E003FFF8
E003BFF0
E0038FC0
E0038000
E0038000
E0038000
E0038000
E0038000
E0038000
E0038004
F007C00F
780FE01E
3C1E783C
0FF83FF0
03E00FC0
ENDCHAR
STARTCHAR 0160
ENCODING 352
SWIDTH 347 0
DWIDTH 25 0
BBX 17 58 4 0
BITMAP
181C00
0C1800
0E3800
063000
077000
036000
03C000
01C000
000000
000000
000000
03E000
0FF800
3C1C00
700E00
E00700
C00300
C00000
C00000
C00000
C00000
C00000
C00000
C00000
C00000
C00000
C00000
C00000
E00000
700000
3C0000
1FE000
03F800
001E00
000700
000380
000180
000180
000180
000180
000180
000180
000180
000180
000180
000180
000180
000180
000180
000180
000180
000180
600180
E00380
780700
3C1E00
0FF800
03E000
ENDCHAR
STARTCHAR 0161
ENCODING 353
SWIDTH 347 0
DWIDTH 25 0
BBX 17 43 4 0
BITMAP
181C00
0C1800
0E3000
067000
076000
03E000
01C000
01C000
000000
000000
000000
03E000
0FF800
3C1E00
700F00
E00780
C00200
C00000
C00000
C00000
C00000
C00000
C00000
E00000
700000
3C0000
1FE000
03F800
001E00
000700
000380
000180
000180
000180
000180
000180
000180
200180
E00380
780700
3C1E00
0FF800
03E000
ENDCHAR
STARTCHAR 0178
ENCODING 376
SWIDTH 347 0
DWIDTH 25 0
BBX 17 55 4 0
BITMAP
0E1C00
0E1C00
0E1C00
0E1C00
000000
000000
000000
000000
E00380
E00380
E00380
E00380
E00380
E00380
E00380
E00380
E00380
E00380
E00380
E00380
E00380
E00380
E00380
E00380
E00380
F00780
780F00
3C3E00
1FFC00
0FF000
01C000
01C000
01C000
01C000
01C000
01C000
01C000
01C000
01C000
01C000
01C000
01C000
01C000
01C000
01C000
01C000
01C000
01C000
01C000
01C000
01C000
01C000
01C000
01C000
01C000
ENDCHAR
STARTCHAR 0192
ENCODING 402
SWIDTH 444 0
DWIDTH 32 0
BBX 24 57 4 -10
BITMAP
000003
00000F
00001C
000030
000060
0000C0
0000C0
0000C0
000180
000180
000180
000180
000300
000300
000300
000300
007FF8
00FFF8
000600
000600
000600
000600
000C00
000C00
000C00
000C00
000C00
001800
001800
001800
001800
003800
003000
003000
003000
003000
006000
006000
006000
006000
006000
00C000
00C000
00C000
00C000
00C000
018000
018000
018000
018000
038000
030000
070000
0E0000
3C0000
F00000
C00000
ENDCHAR
STARTCHAR 02C6
ENCODING 710
SWIDTH 277 0
DWIDTH 20 0
BBX 12 10 4 36
BITMAP
0700
0F00
0F80
1980
19C0
30C0
30C0
6060
6060
C030
ENDCHAR
STARTCHAR 02DC
ENCODING 732
SWIDTH 333 0
DWIDTH 24 0
BBX 16 4 4 41
BITMAP
1F02
7FEF
F1FE
0078
ENDCHAR
STARTCHAR 03BC
ENCODING 956
SWIDTH 347 0
DWIDTH 25 0
BBX 17 41 4 -9
BITMAP
E00380
E00380
E00380
E00380
E00380
E00380
E00380
E00380
E00380
E00380
E00380
E00380
E00380
E00380
E00380
E00380
E00380
E00380
E00380
E00380
E00380
E00380
E00380
E00380
E00380
E00380
E00380
F00780
F80F00
FFFE00
EFF800
E3E000
E0E000
E07000
E03800
E01E00
E00F80
E00380
E00000
E00000
E00000
ENDCHAR
STARTCHAR 2010
ENCODING 8208
SWIDTH 416 0
DWIDTH 30 0
BBX 22 2 4 20
BITMAP
FFFFFC
FFFFFC
ENDCHAR
STARTCHAR 2013
ENCODING 8211
SWIDTH 472 0
DWIDTH 34 0
BBX 26 2 4 20
BITMAP
FFFFFFC0
FFFFFFC0
ENDCHAR
STARTCHAR 2014
ENCODING 8212
SWIDTH 555 0
DWIDTH 40 0
BBX 32 2 4 20
BITMAP
FFFFFFFF
FFFFFFFF
ENDCHAR
STARTCHAR 2018
ENCODING 8216
SWIDTH 180 0
DWIDTH 13 0
BBX 5 10 4 38
BITMAP
E0
60
60
60
60
30
30
30
30
18
ENDCHAR
STARTCHAR 2019
ENCODING 8217
SWIDTH 180 0
DWIDTH 13 0
BBX 5 10 4 36
BITMAP
18
38
30
30
30
70
60
60
60
E0
ENDCHAR
STARTCHAR 201A
ENCODING 8218
SWIDTH 180 0
DWIDTH 13 0
BBX 5 10 4 -6
BITMAP
18
38
30
30
30
70
60
60
60
E0
ENDCHAR
STARTCHAR 201C
ENCODING 8220
SWIDTH 250 0
DWIDTH 18 0
BBX 10 10 4 37
BITMAP
C600
C300
6300
6300
6300
6180
3180
3180
3180
30C0
ENDCHAR
STARTCHAR 201D
ENCODING 8221
SWIDTH 250 0
DWIDTH 18 0
BBX 10 10 4 37
BITMAP
30C0
3180
3180
3180
6180
6300
6300
6300
C300
C600
ENDCHAR
STARTCHAR 201E
ENCODING 8222
SWIDTH 277 0
DWIDTH 20 0
BBX 12 10 4 -5
BITMAP
1030
3030
3060
3060
2060
6060
60C0
60C0
40C0
C0C0
ENDCHAR
STARTCHAR 2020
ENCODING 8224
SWIDTH 277 0
DWIDTH 20 0
BBX 13 47 4 -5
BITMAP
0700
0700
0700
0700
0700
0700
0700
0700
FFF8
FFF8
0700
0700
0700
0700
0700
0700
0700
0700
0700
0700
0700
0700
0700
0700
0700
0700
0700
0700
0700
0700
0700
0700
0700
0700
0700
0700
0700
0700
0700
0700
0700
0700
0700
0700
0700
0700
0700
ENDCHAR
STARTCHAR 2021
ENCODING 8225
SWIDTH 277 0
DWIDTH 20 0
BBX 13 47 4 -5
BITMAP
0700
0700
0700
0700
0700
0700
0700
0700
FFF8
FFF8
0700
0700
0700
0700
0700
0700
0700
0700
0700
0700
0700
0700
0700
0700
0700
0700
0700
0700
0700
0700
0700
0700
0700
0700
0700
0700
0700
0700
FFF8
FFF8
0700
0700
0700
0700
0700
0700
0700
ENDCHAR
STARTCHAR 2022
ENCODING 8226
SWIDTH 180 0
DWIDTH 13 0
BBX 5 8 4 18
BITMAP
F8
F8
F8
F8
F8
F8
F8
F8
ENDCHAR
STARTCHAR 2026
ENCODING 8230
SWIDTH 444 0
DWIDTH 32 0
BBX 25 5 4 0
BITMAP
E01C0380
E01C0380
E01C0380
E01C0380
E01C0380
ENDCHAR
STARTCHAR 2030
ENCODING 8240
SWIDTH 833 0
DWIDTH 60 0
BBX 52 47 4 1
BITMAP
0F000060000000
3F8000E0000000
39C000C0000000
70E000C0000000
E06001C0000000
E0300180000000
E0380180000000
E0380380000000
E0380300000000
E0380300000000
E0380300000000
E0380600000000
E0380600000000
E0380600000000
E0380C00000000
E0380C00000000
E0380C00000000
E0381800000000
E0381800000000
E0381800000000
E0703000000000
70703000000000
38E03000000000
1FC07007801F00
0F80601FC03F80
0000603CE071C0
0000E03870E0E0
0000C07079C0F0
0000C07039C070
0001C07039C070
0001807039C070
0001807039C070
0003807039C070
0003007039C070
0003007039C070
0003007039C070
0006007039C070
0006007039C070
0006007039C070
000C007039C070
000C007039C070
000C007039C070
0018007079C0F0
0018003870E0E0
0018001CE071C0
0030000FC03F80
00300007801F00
ENDCHAR
STARTCHAR 2039
ENCODING 8249
SWIDTH 222 0
DWIDTH 16 0
BBX 9 17 4 12
BITMAP
0080
0180
0380
0700
1E00
3C00
7C00
F800
F000
F000
F800
7800
3C00
1E00
0700
0300
0100
ENDCHAR
STARTCHAR 203A
ENCODING 8250
SWIDTH 222 0
DWIDTH 16 0
BBX 9 17 4 13
BITMAP
C000
E000
7000
7800
3C00
1E00
0F00
0F80
0780
0F00
1E00
3C00
3800
7000
E000
C000
8000
ENDCHAR
STARTCHAR 2122
ENCODING 8482
SWIDTH 625 0
DWIDTH 45 0
BBX 37 13 5 29
BITMAP
1F003E0F80
7F80FFBFE0
EEC3C3F0F0
CE6380E038
0E0380E038
0E0380E038
0E0380E038
0E0380E038
0E0380E038
0E0380E038
0E0380E038
0E0380E038
0E0380E038
ENDCHAR
STARTCHAR 2212
ENCODING 8722
SWIDTH 416 0
DWIDTH 30 0
BBX 22 2 4 20
BITMAP
FFFFFC
FFFFFC
ENDCHAR
STARTCHAR 2219
ENCODING 8729
SWIDTH 138 0
DWIDTH 10 0
BBX 3 5 4 20
BITMAP
E0
E0
E0
E0
E0
ENDCHAR
ENDFONT
